<svg xmlns="http://www.w3.org/2000/svg" width="228" height="221" fill="none" viewBox="0 0 228 221">
  <path stroke="#7759c2" stroke-linecap="round" stroke-linejoin="round" stroke-width="14.4" d="M69.559 181.104v-34.927H37.363v11.127m92.811 17.562V127.23H97.961v71.976m92.808-41.507v-46.252h-32.195v68.165"/>
  <path stroke="#a989f5" stroke-miterlimit="10" stroke-width="14.4" d="M187.409 12.794c-.575-1.492-1.618-2.733-2.966-3.596a7.6 7.6 0 0 0-4.53-1.186 7.59 7.59 0 0 0-6.921 5.573L153.506 73.57H74.627L55.123 13.585a7.52 7.52 0 0 0-2.553-3.901 7.6 7.6 0 0 0-4.368-1.672 7.6 7.6 0 0 0-4.53 1.186 7.54 7.54 0 0 0-2.966 3.596l-28.87 75.733-.287.755c-8.557 22.434-1.258 47.799 17.778 62.287.036.018.072.054.108.072l.252.198 43.987 33.094 21.751 16.556 13.231 10.067a8.9 8.9 0 0 0 10.786 0l13.23-10.067 21.751-16.556 44.239-33.292s.072-.054.108-.09c19.037-14.488 26.317-39.835 17.779-62.269z"/>
</svg>
