<svg xmlns="http://www.w3.org/2000/svg" width="228" height="221" fill="none" viewBox="0 0 228 221">
  <path stroke="#fca326" stroke-linejoin="round" stroke-width="14.4" d="M172.184 171.271a36 36 0 0 1-3.828 3.326l-49.687 37.264a7.63 7.63 0 0 1-9.185 0l-49.686-37.264a34 34 0 0 1-3.83-3.326c-12.08-12.134-13.769-31.638-3.217-45.767 11.595-15.513 33.526-18.659 49.003-7.065l12.314 9.24 12.313-9.24c15.478-11.612 37.409-8.448 49.003 7.065 10.552 14.129 8.88 33.633-3.218 45.767z"/>
  <path stroke="#e24329" stroke-miterlimit="10" stroke-width="14.4" d="M187.409 12.794c-.575-1.492-1.617-2.733-2.966-3.596a7.6 7.6 0 0 0-4.53-1.186 7.6 7.6 0 0 0-4.368 1.672 7.6 7.6 0 0 0-2.552 3.9l-19.487 59.987H74.627L55.123 13.585a7.52 7.52 0 0 0-2.553-3.901 7.6 7.6 0 0 0-4.368-1.672 7.6 7.6 0 0 0-4.53 1.186 7.54 7.54 0 0 0-2.966 3.596l-28.87 75.733-.287.755c-8.557 22.434-1.258 47.799 17.778 62.287.036.018.072.054.108.072l.252.198 43.987 33.094 21.751 16.556 13.231 10.067a8.9 8.9 0 0 0 10.786 0l13.23-10.067 21.751-16.556 44.239-33.292s.072-.054.108-.09c19.037-14.488 26.317-39.835 17.779-62.269z"/>
</svg>
