<svg xmlns="http://www.w3.org/2000/svg" width="228" height="221" fill="none" viewBox="0 0 228 221">
  <path stroke="#a989f5" stroke-miterlimit="10" stroke-width="14.4" d="M150.829 113.856a3.73 3.73 0 0 0-1.492-1.798 3.77 3.77 0 0 0-2.265-.593 3.81 3.81 0 0 0-3.47 2.804l-9.761 30.056h-39.53l-9.778-30.056a3.9 3.9 0 0 0-1.277-1.959 3.9 3.9 0 0 0-2.193-.845 3.83 3.83 0 0 0-2.265.593 3.73 3.73 0 0 0-1.492 1.798l-14.47 37.947-.144.378c-4.297 11.235-.63 23.962 8.916 31.206.018 0 .036.018.054.036l.126.09 22.038 16.592 10.894 8.305 6.453 4.62a6.12 6.12 0 0 0 5.789 0l6.453-4.62 10.894-8.305 22.164-16.682.054-.054c9.545-7.262 13.195-19.971 8.898-31.206l-14.614-38.343z"/>
  <path stroke="#7759c2" stroke-miterlimit="10" stroke-width="14.4" d="M187.409 12.794c-.575-1.492-1.617-2.733-2.966-3.596a7.6 7.6 0 0 0-4.53-1.186 7.59 7.59 0 0 0-6.92 5.573L153.506 73.57H74.627L55.123 13.585a7.52 7.52 0 0 0-2.552-3.901 7.6 7.6 0 0 0-4.369-1.672 7.6 7.6 0 0 0-4.53 1.186 7.54 7.54 0 0 0-2.966 3.596l-28.87 75.733-.287.755c-8.557 22.434-1.258 47.799 17.778 62.287.036.018.072.054.108.072l.252.198 43.988 33.094 21.75 16.556 13.231 10.067a8.9 8.9 0 0 0 10.786 0l13.23-10.067 21.751-16.556 44.24-33.292s.071-.054.107-.09c19.037-14.488 26.317-39.835 17.779-62.269z"/>
</svg>
