<svg xmlns="http://www.w3.org/2000/svg" width="228" height="221" fill="none" viewBox="0 0 228 221">
  <path stroke="#e24329" stroke-linecap="round" stroke-linejoin="round" stroke-width="14.4" d="M25.684 145.017h49.603c0-17.243 13.958-31.203 31.161-31.203 9.544 0 18.076 4.298 23.798 11.059m77.711 10.168h-55.832c0 17.244-13.958 31.203-31.161 31.203-9.84 0-18.634-4.577-24.339-11.723"/>
  <path stroke="#fc6d26" stroke-miterlimit="10" stroke-width="14.4" d="M187.409 12.794c-.575-1.492-1.617-2.733-2.966-3.596a7.6 7.6 0 0 0-4.53-1.186 7.6 7.6 0 0 0-4.368 1.672 7.6 7.6 0 0 0-2.552 3.9l-19.487 59.987H74.627L55.123 13.585a7.52 7.52 0 0 0-2.553-3.901 7.6 7.6 0 0 0-4.368-1.672 7.6 7.6 0 0 0-4.53 1.186 7.54 7.54 0 0 0-2.966 3.596L11.55 89.282c-8.557 22.434-1.258 47.799 17.778 62.287.036.018.072.054.108.072l.252.198 43.987 33.094 34.982 26.623a8.9 8.9 0 0 0 10.786 0l34.981-26.623 44.239-33.292s.072-.054.108-.09c19.037-14.488 26.317-39.835 17.779-62.269z"/>
</svg>
