<svg xmlns="http://www.w3.org/2000/svg" width="228" height="221" fill="none" viewBox="0 0 228 221">
  <path stroke="#6fdac9" stroke-miterlimit="10" stroke-width="14.4" d="M187.316 12.792c-.575-1.492-1.618-2.732-2.965-3.594a7.6 7.6 0 0 0-4.528-1.186 7.6 7.6 0 0 0-4.367 1.671 7.6 7.6 0 0 0-2.551 3.9l-19.478 59.96H74.581l-19.478-59.96a7.52 7.52 0 0 0-2.552-3.9 7.6 7.6 0 0 0-4.366-1.67 7.6 7.6 0 0 0-4.528 1.185 7.53 7.53 0 0 0-2.965 3.594L11.835 88.493l-.288.755c-8.553 22.425-1.257 47.778 17.771 62.261.036.018.072.054.108.072l.252.197 43.969 33.08 21.741 16.549 13.225 10.063a8.9 8.9 0 0 0 10.781 0l13.225-10.063 21.742-16.549 44.221-33.277s.072-.054.108-.09c19.028-14.483 26.306-39.818 17.77-62.243z"/>
  <path stroke="#10b1b1" stroke-linecap="round" stroke-miterlimit="10" stroke-width="14.4" d="M174.647 129.372c-13.962-18.185-35.937-29.918-60.644-29.918s-46.682 11.715-60.644 29.918"/>
  <path stroke="#10b1b1" stroke-linecap="round" stroke-miterlimit="10" stroke-width="14.4" d="M174.649 99.472a77 77 0 0 1-15.219 14.95m-45.427 60.518c20.84 0 37.734-16.894 37.734-37.734s-16.894-37.734-37.734-37.734-37.734 16.894-37.734 37.734 16.895 37.734 37.734 37.734Z"/>
  <path fill="#10b1b1" d="M114.383 120.567c-8.949 0-16.172 7.241-16.172 16.172 0 8.93 7.223 16.171 16.172 16.171 8.948 0 16.171-7.241 16.171-16.171q0-.59-.043-1.168c-.125-1.71-2.515-2.066-4.061-1.326a7.186 7.186 0 0 1-10.271-6.491 7.2 7.2 0 0 1 .719-3.142c.745-1.531.408-3.874-1.291-4q-.607-.045-1.224-.045"/>
</svg>
