<svg xmlns="http://www.w3.org/2000/svg" width="228" height="221" fill="none" viewBox="0 0 228 221">
  <path stroke="#10b1b1" stroke-linecap="round" stroke-miterlimit="10" stroke-width="14.4" d="M187.316 12.792c-.575-1.492-1.618-2.732-2.965-3.594a7.6 7.6 0 0 0-4.528-1.186 7.6 7.6 0 0 0-4.367 1.671 7.6 7.6 0 0 0-2.551 3.9l-19.478 59.96H74.581l-19.478-59.96a7.52 7.52 0 0 0-2.552-3.9 7.6 7.6 0 0 0-4.366-1.67 7.6 7.6 0 0 0-4.528 1.185 7.53 7.53 0 0 0-2.965 3.594L11.835 88.493l-.288.755c-8.553 22.425-1.257 47.778 17.771 62.261.036.018.072.054.108.072l.252.197 43.969 33.08 21.741 16.549 13.225 10.063a8.9 8.9 0 0 0 10.781 0l13.225-10.063 21.742-16.549 44.221-33.277s.072-.054.108-.09c19.028-14.483 26.306-39.818 17.77-62.243z"/>
  <path stroke="#6fdac9" stroke-miterlimit="10" stroke-width="14.4" d="M113.898 174.94c21.088 0 38.183-17.095 38.183-38.183s-17.095-38.184-38.183-38.184-38.183 17.096-38.183 38.184 17.095 38.183 38.183 38.183Z"/>
  <path stroke="#6fdac9" stroke-linecap="round" stroke-linejoin="round" stroke-width="14.4" d="M113.898 117.081v19.658l12.578 7.151"/>
</svg>
