<svg xmlns="http://www.w3.org/2000/svg" width="784" height="226" fill="none" viewBox="0 0 784 226">
  <path fill="#fff" d="M0 0h784v226H0z"/>
  <path fill="#102b2d" d="M21.357 53.5V41.864h4.147q1.359 0 2.25.494.892.494 1.335 1.352.444.853.444 1.92 0 1.075-.45 1.932-.443.853-1.34 1.353-.892.495-2.244.494h-2.853V47.92h2.694q.857 0 1.392-.295.534-.301.784-.818t.25-1.176-.25-1.17a1.8 1.8 0 0 0-.79-.802q-.534-.29-1.41-.29h-2.204V53.5zm10.098 0v-8.727h1.642v1.386h.09q.24-.705.841-1.108.609-.41 1.375-.409a7 7 0 0 1 .722.04v1.625a3 3 0 0 0-.364-.063 3.5 3.5 0 0 0-.522-.04q-.603 0-1.074.256a1.9 1.9 0 0 0-1.012 1.71v5.33zm9.504.176q-1.227 0-2.142-.562a3.8 3.8 0 0 1-1.42-1.574q-.507-1.012-.506-2.364 0-1.358.505-2.375a3.8 3.8 0 0 1 1.42-1.58q.916-.562 2.143-.562t2.142.563q.915.562 1.42 1.58.506 1.016.506 2.374 0 1.353-.506 2.364a3.8 3.8 0 0 1-1.42 1.574q-.915.562-2.142.562m.005-1.426q.795 0 1.319-.42t.772-1.12q.256-.699.256-1.54 0-.834-.256-1.534a2.5 2.5 0 0 0-.772-1.13q-.523-.426-1.319-.426-.8 0-1.33.426a2.54 2.54 0 0 0-.778 1.13q-.25.7-.25 1.534 0 .841.25 1.54.256.7.779 1.12.528.42 1.33.42m9.226 1.42q-1.056 0-1.886-.54-.824-.545-1.296-1.55-.465-1.012-.465-2.427t.471-2.42q.477-1.006 1.307-1.54a3.4 3.4 0 0 1 1.88-.534q.813 0 1.307.273.5.267.773.625.279.358.432.63h.102v-4.323h1.7V53.5h-1.66v-1.358h-.142a4.5 4.5 0 0 1-.443.636q-.284.358-.784.625t-1.296.267m.375-1.448q.733 0 1.239-.387.511-.392.773-1.085.267-.693.267-1.614 0-.909-.262-1.59-.261-.683-.767-1.063-.505-.38-1.25-.38-.767 0-1.278.397-.512.398-.773 1.085-.255.689-.256 1.551 0 .876.262 1.574.261.699.773 1.108.517.405 1.272.404m11.902-2.341v-5.108h1.705V53.5h-1.67v-1.511h-.092q-.3.699-.965 1.164-.66.46-1.642.46-.841 0-1.49-.369-.64-.375-1.01-1.108-.364-.732-.364-1.812v-5.551h1.699v5.346q0 .893.494 1.42.495.53 1.284.53.477 0 .95-.24.475-.239.789-.721.318-.483.312-1.227m7.664 3.795q-1.267 0-2.182-.574a3.8 3.8 0 0 1-1.398-1.596q-.489-1.017-.489-2.33 0-1.329.5-2.346a3.83 3.83 0 0 1 1.41-1.597q.909-.574 2.142-.574.993 0 1.772.37.78.363 1.256 1.022.483.66.574 1.54h-1.653a1.98 1.98 0 0 0-.626-1.057q-.483-.443-1.295-.443a2.1 2.1 0 0 0-1.244.375q-.528.369-.824 1.057-.296.681-.296 1.613 0 .955.29 1.648t.818 1.074q.534.38 1.256.38.483 0 .875-.175.398-.182.665-.518.273-.335.38-.806h1.654a3.2 3.2 0 0 1-.551 1.511 3.2 3.2 0 0 1-1.233 1.045q-.767.381-1.801.381m9.163 0q-1.29 0-2.222-.551a3.74 3.74 0 0 1-1.431-1.562q-.5-1.012-.5-2.37 0-1.341.5-2.363a3.9 3.9 0 0 1 1.409-1.597q.909-.574 2.125-.574.739 0 1.431.244.694.245 1.245.767.55.524.87 1.358.317.83.317 2.017v.603h-6.937v-1.273h5.273q0-.67-.273-1.187a2.06 2.06 0 0 0-.767-.824q-.49-.301-1.148-.301-.716 0-1.25.352a2.36 2.36 0 0 0-.818.909q-.285.557-.284 1.21v.994q0 .876.307 1.489.312.614.869.938.557.318 1.301.318.483 0 .88-.137.399-.142.688-.42.29-.279.443-.688l1.608.29q-.193.71-.693 1.245a3.36 3.36 0 0 1-1.244.823q-.745.29-1.699.29m5.63-.176v-8.727h1.641v1.386h.091q.24-.705.841-1.108.609-.41 1.375-.409a7 7 0 0 1 .722.04v1.625a3 3 0 0 0-.364-.063 3.5 3.5 0 0 0-.523-.04q-.603 0-1.073.256a1.9 1.9 0 0 0-1.012 1.71v5.33z"/>
  <path stroke="#58da95" stroke-linejoin="round" d="M104 48h46"/>
  <path stroke="#58da95" stroke-linecap="square" stroke-linejoin="round" d="m125 42 6 6-6 6"/>
  <rect width="118" height="74" x="155" y="11" stroke="#58da95" stroke-width="2" rx="7"/>
  <path fill="#102b2d" d="M194.19 46.063q-.08-.745-.67-1.16-.585-.414-1.523-.414-.659 0-1.131.199-.47.198-.721.54a1.3 1.3 0 0 0-.256.778q0 .363.165.63.17.267.46.455.29.181.642.307.353.124.71.21l1.091.273q.66.153 1.267.414.614.262 1.097.66.489.398.773.96t.284 1.318q0 1.023-.523 1.801-.522.773-1.511 1.21-.983.432-2.381.432-1.357 0-2.358-.42-.995-.42-1.557-1.228-.557-.807-.602-1.965h2.074q.045.608.375 1.01.33.404.858.603.534.2 1.193.199.687 0 1.205-.205.522-.21.818-.58a1.4 1.4 0 0 0 .301-.874q-.006-.455-.267-.75-.262-.3-.733-.5a7 7 0 0 0-1.091-.364l-1.324-.34q-1.437-.37-2.273-1.12-.83-.755-.829-2.006 0-1.028.557-1.8.562-.774 1.528-1.2.966-.431 2.188-.431 1.238 0 2.17.431.938.426 1.472 1.188.534.755.551 1.739zm7.783 8.607q-1.278 0-2.216-.562a3.8 3.8 0 0 1-1.454-1.574q-.512-1.011-.512-2.364 0-1.351.512-2.369a3.8 3.8 0 0 1 1.454-1.58q.938-.562 2.216-.562t2.216.563a3.8 3.8 0 0 1 1.449 1.58q.517 1.016.517 2.368 0 1.353-.517 2.364a3.8 3.8 0 0 1-1.449 1.574q-.938.563-2.216.563m.011-1.647q.693 0 1.159-.381.466-.387.694-1.034.233-.648.233-1.443 0-.8-.233-1.45-.228-.652-.694-1.039t-1.159-.386q-.71 0-1.181.386-.466.387-.699 1.04a4.3 4.3 0 0 0-.228 1.449q0 .795.228 1.443.233.648.699 1.034.471.38 1.181.38m11.479-2.193v-5.057h2.057V54.5h-1.994v-1.551h-.091a2.6 2.6 0 0 1-.972 1.199q-.67.466-1.653.466-.858 0-1.517-.381a2.64 2.64 0 0 1-1.023-1.12q-.369-.739-.369-1.783v-5.557h2.056v5.238q0 .83.455 1.319.455.488 1.193.488.455 0 .881-.221.426-.222.699-.66.278-.443.278-1.107m4.172 3.67v-8.727h1.994v1.454h.091q.239-.755.818-1.164a2.26 2.26 0 0 1 1.336-.415q.17 0 .38.017.216.01.358.04v1.892a2 2 0 0 0-.415-.08 4 4 0 0 0-.539-.04q-.562 0-1.012.245-.442.238-.699.664-.255.426-.255.983V54.5zm9.791.17q-1.307 0-2.244-.573a3.83 3.83 0 0 1-1.438-1.586q-.5-1.017-.5-2.34 0-1.331.512-2.347a3.8 3.8 0 0 1 1.443-1.591q.938-.574 2.216-.574 1.062 0 1.88.392.825.386 1.313 1.097.488.705.557 1.647h-1.966q-.12-.63-.568-1.05-.444-.427-1.188-.427-.63 0-1.108.341-.477.336-.744.966-.261.63-.261 1.511 0 .892.261 1.534.26.637.733.983.477.342 1.119.341.455 0 .813-.17.363-.177.608-.506.244-.33.335-.801h1.966a3.4 3.4 0 0 1-.546 1.642 3.2 3.2 0 0 1-1.284 1.114q-.812.397-1.909.397m9.291 0q-1.312 0-2.267-.545a3.7 3.7 0 0 1-1.46-1.557q-.511-1.011-.511-2.38 0-1.347.511-2.364a3.87 3.87 0 0 1 1.443-1.591q.927-.574 2.176-.574.807 0 1.523.261.721.256 1.273.796.557.54.875 1.375.318.83.318 1.977v.63h-7.153v-1.386h5.181a2.2 2.2 0 0 0-.255-1.05q-.25-.467-.699-.734a1.97 1.97 0 0 0-1.034-.267q-.631 0-1.108.307-.477.3-.744.796a2.3 2.3 0 0 0-.268 1.074v1.21q0 .761.279 1.306.278.54.778.83.5.285 1.171.284.449 0 .812-.125.364-.13.631-.38t.403-.62l1.921.216a3 3 0 0 1-.693 1.33 3.4 3.4 0 0 1-1.296.875q-.79.306-1.807.306"/>
  <path stroke="#58da95" stroke-linejoin="round" d="M278 48h64"/>
  <path stroke="#58da95" stroke-linecap="square" stroke-linejoin="round" d="m308 42 6 6-6 6"/>
  <mask id="a" fill="#fff">
    <path fill-rule="evenodd" d="M346.345 50.07c4.819 13.758 13.431 25.814 24.804 34.728a6.14 6.14 0 0 0 3.795 1.284h34.699v-.078a6.05 6.05 0 0 0 2.795-1.206c11.373-8.914 19.985-20.97 24.804-34.727a6.14 6.14 0 0 0 0-4.06c-4.819-13.756-13.431-25.813-24.804-34.726a6.05 6.05 0 0 0-2.795-1.207V10h-34.699c-1.369 0-2.71.434-3.795 1.284-11.373 8.914-19.985 20.97-24.804 34.728a6.14 6.14 0 0 0 0 4.059" clip-rule="evenodd"/>
  </mask>
  <path fill="#58da95" d="m371.149 84.798 1.234-1.574zM346.345 50.07l1.887-.662zm63.298 36.011v2h2v-2zm0-.078-.313-1.975-1.687.266v1.71zm2.795-1.206-1.234-1.574zm24.804-34.727-1.887-.662zm0-4.06-1.887.662zm-24.804-34.726 1.233-1.575zm-2.795-1.207h-2v1.709l1.687.267zm0-.078h2V8h-2zm-38.494 1.284 1.234 1.575zm-24.804 34.728 1.887.66zm26.038 37.212c-11.07-8.676-19.456-20.415-24.151-33.815l-3.775 1.323c4.945 14.114 13.782 26.489 25.459 35.64zm2.561.858c-.949 0-1.849-.3-2.561-.858l-2.467 3.148c1.457 1.142 3.238 1.71 5.028 1.71zm33.699 0h-33.699v4h33.699zm1 0h-1v4h1zm-2 1.922v.078h4v-.078zm2.312 1.976a8.05 8.05 0 0 0 3.716-1.608l-2.467-3.148a4.05 4.05 0 0 1-1.874.805zm3.716-1.608c11.677-9.151 20.514-21.526 25.459-35.64l-3.775-1.323c-4.695 13.4-13.081 25.139-24.151 33.815zm25.459-35.64a8.15 8.15 0 0 0 0-5.382l-3.775 1.323a4.16 4.16 0 0 1 0 2.736zm0-5.382c-4.945-14.114-13.782-26.488-25.459-35.64l-2.467 3.149c11.07 8.675 19.456 20.414 24.151 33.814zM413.671 9.71a8.05 8.05 0 0 0-3.716-1.607l-.625 3.95c.693.11 1.336.384 1.874.806zm-6.028.29v.078h4V10zm1 2h1V8h-1zm-33.699 0h33.699V8h-33.699zm-2.561.859a4.14 4.14 0 0 1 2.561-.859V8c-1.79 0-3.571.568-5.028 1.71zm-24.151 33.814c4.695-13.4 13.081-25.139 24.151-33.814l-2.467-3.149c-11.677 9.152-20.514 21.526-25.459 35.64zm0 2.736a4.16 4.16 0 0 1 0-2.736l-3.775-1.323a8.15 8.15 0 0 0 0 5.382z" mask="url(#a)"/>
  <path fill="#102b2d" d="M374.312 55V43.364h4.454q1.262 0 2.097.397.841.393 1.256 1.074.42.682.42 1.546 0 .71-.273 1.216a2.3 2.3 0 0 1-.733.812 3.1 3.1 0 0 1-1.028.449v.114q.62.034 1.187.38.575.342.938.966.364.625.364 1.512a3.07 3.07 0 0 1-.438 1.625q-.438.716-1.318 1.13-.88.415-2.216.415zm2.108-1.761h2.267q1.147 0 1.653-.438.512-.443.512-1.136a1.74 1.74 0 0 0-.983-1.591q-.473-.244-1.125-.244h-2.324zm0-4.926h2.085q.545 0 .983-.2.438-.204.687-.573.256-.375.256-.887 0-.676-.477-1.113-.472-.438-1.404-.438h-2.13zm13.879 3.017v-5.057h2.057V55h-1.994v-1.551h-.091a2.6 2.6 0 0 1-.972 1.199q-.67.466-1.653.466-.858 0-1.517-.381a2.64 2.64 0 0 1-1.023-1.12q-.369-.739-.369-1.783v-5.557h2.056v5.238q0 .83.455 1.319.455.488 1.193.488.455 0 .881-.221.426-.222.699-.66.278-.443.278-1.107m4.172 3.67v-8.727h2.057V55zm1.034-9.966a1.2 1.2 0 0 1-.841-.324 1.04 1.04 0 0 1-.352-.79q0-.465.352-.79.352-.329.841-.329.495 0 .841.33.352.324.352.79 0 .46-.352.79a1.2 1.2 0 0 1-.841.323m5.195-1.67V55h-2.057V43.364zm5.353 11.79a3.3 3.3 0 0 1-1.841-.529q-.812-.528-1.284-1.534-.471-1.005-.471-2.443 0-1.455.477-2.455.483-1.005 1.301-1.517a3.34 3.34 0 0 1 1.824-.517q.767 0 1.261.261.495.255.784.62.29.357.449.676h.085v-4.352h2.063V55h-2.023v-1.375h-.125a3.5 3.5 0 0 1-.46.676 2.5 2.5 0 0 1-.795.602q-.495.25-1.245.25m.574-1.688q.654 0 1.114-.352.46-.358.699-.995.238-.636.238-1.483t-.238-1.471q-.234-.625-.694-.972-.454-.345-1.119-.346-.687 0-1.148.358-.459.358-.693.988t-.233 1.443q0 .82.233 1.46.238.637.699 1.006.466.364 1.142.364"/>
  <path stroke="#58da95" stroke-linejoin="round" d="M442 48h64"/>
  <path stroke="#58da95" stroke-linecap="square" stroke-linejoin="round" d="m472 42 6 6-6 6"/>
  <rect width="118" height="74" x="511" y="11" stroke="#58da95" stroke-width="2" rx="7"/>
  <path fill="#102b2d" d="M529.747 54.5h-3.943V42.864h4.023q1.732 0 2.977.699a4.67 4.67 0 0 1 1.92 1.994q.67 1.3.671 3.113 0 1.819-.676 3.125a4.67 4.67 0 0 1-1.938 2.006q-1.261.699-3.034.699m-1.835-1.824h1.733q1.216 0 2.028-.443.813-.45 1.222-1.335.41-.892.409-2.228 0-1.335-.409-2.215-.41-.887-1.21-1.324-.796-.444-1.978-.444h-1.795zm9.395 1.824v-8.727h2.057V54.5zm1.034-9.966a1.2 1.2 0 0 1-.841-.324 1.04 1.04 0 0 1-.352-.79q0-.465.352-.79.352-.329.841-.329.494 0 .841.33.352.324.352.79 0 .46-.352.79a1.2 1.2 0 0 1-.841.323m10.035 3.546-1.875.204a1.5 1.5 0 0 0-.278-.534 1.4 1.4 0 0 0-.523-.403q-.329-.154-.807-.154-.642 0-1.079.279-.432.278-.426.721a.76.76 0 0 0 .278.62q.29.239.955.392l1.488.318q1.24.267 1.841.846.609.58.614 1.517a2.38 2.38 0 0 1-.483 1.455q-.471.625-1.313.977-.84.352-1.931.352-1.603 0-2.58-.67-.977-.676-1.165-1.88l2.006-.194q.136.59.58.892.442.3 1.153.301.733 0 1.176-.3.449-.303.449-.745a.78.78 0 0 0-.29-.62q-.284-.243-.886-.374l-1.489-.313q-1.255-.262-1.858-.88-.602-.626-.596-1.58-.006-.807.437-1.398.449-.597 1.244-.92.802-.33 1.847-.33 1.534 0 2.415.654.886.653 1.096 1.767m6.242-2.307v1.59h-5.017v-1.59zm-3.779-2.091h2.057v8.193q0 .415.125.636a.68.68 0 0 0 .341.296q.21.08.466.08.193 0 .352-.029.166-.029.25-.051l.347 1.608q-.165.057-.472.125a4 4 0 0 1-.738.08 3.4 3.4 0 0 1-1.392-.234 2.16 2.16 0 0 1-.983-.806q-.358-.546-.353-1.364zm5.499 10.818v-8.727h1.994v1.454h.091q.239-.755.818-1.164a2.26 2.26 0 0 1 1.336-.415q.17 0 .38.017.216.01.358.04v1.892a2 2 0 0 0-.414-.08 4 4 0 0 0-.54-.04q-.562 0-1.012.245-.443.238-.698.664a1.87 1.87 0 0 0-.256.983V54.5zm6.344 0v-8.727h2.057V54.5zm1.034-9.966a1.2 1.2 0 0 1-.841-.324 1.04 1.04 0 0 1-.352-.79q0-.465.352-.79.352-.329.841-.329.494 0 .841.33.352.324.352.79 0 .46-.352.79a1.2 1.2 0 0 1-.841.323m3.229 9.966V42.864h2.056v4.352h.086q.159-.319.449-.676.29-.365.784-.62.494-.26 1.261-.26 1.011 0 1.824.516.818.512 1.295 1.517.483 1 .483 2.455 0 1.437-.471 2.443-.473 1.006-1.284 1.534a3.3 3.3 0 0 1-1.841.528q-.75 0-1.245-.25a2.5 2.5 0 0 1-.795-.602 4 4 0 0 1-.46-.676h-.12V54.5zm2.017-4.364q0 .848.238 1.483.245.637.699.995.46.352 1.114.352.681 0 1.142-.364.46-.369.693-1.005.239-.642.239-1.46 0-.813-.233-1.444-.234-.63-.693-.988-.46-.359-1.148-.358-.66 0-1.12.346-.46.347-.698.972-.233.624-.233 1.471m13.532.694v-5.057h2.057V54.5h-1.994v-1.551h-.091a2.6 2.6 0 0 1-.972 1.199q-.67.466-1.653.466-.858 0-1.517-.381a2.64 2.64 0 0 1-1.023-1.12q-.369-.739-.369-1.783v-5.557h2.057v5.238q0 .83.454 1.319.455.488 1.193.488.455 0 .881-.221.426-.222.699-.66.279-.443.278-1.107m8.53-5.057v1.59h-5.017v-1.59zm-3.778-2.091h2.057v8.193q0 .415.125.636.13.216.34.296t.466.08q.194 0 .353-.029.164-.029.25-.051l.346 1.608q-.165.057-.471.125a4 4 0 0 1-.739.08 3.4 3.4 0 0 1-1.392-.234 2.16 2.16 0 0 1-.983-.806q-.358-.546-.352-1.364zm5.498 10.818v-8.727h2.057V54.5zm1.034-9.966q-.488 0-.84-.324a1.04 1.04 0 0 1-.353-.79q0-.465.353-.79.352-.329.84-.329.495 0 .841.33.353.324.353.79 0 .46-.353.79a1.2 1.2 0 0 1-.841.323m6.945 10.136q-1.278 0-2.216-.562a3.8 3.8 0 0 1-1.454-1.574q-.512-1.011-.512-2.364 0-1.351.512-2.369a3.8 3.8 0 0 1 1.454-1.58q.938-.562 2.216-.562t2.216.563a3.8 3.8 0 0 1 1.449 1.58q.517 1.016.517 2.368 0 1.353-.517 2.364a3.8 3.8 0 0 1-1.449 1.574q-.938.563-2.216.563m.011-1.647q.694 0 1.159-.381.466-.387.694-1.034.233-.648.233-1.443 0-.8-.233-1.45-.228-.652-.694-1.039t-1.159-.386q-.71 0-1.181.386-.467.387-.699 1.04a4.3 4.3 0 0 0-.228 1.449q0 .795.228 1.443.233.648.699 1.034.471.38 1.181.38m7.973-3.637V54.5h-2.056v-8.727h1.965v1.483h.103q.302-.733.96-1.165.665-.432 1.642-.432.903 0 1.574.386.676.387 1.045 1.12.375.732.37 1.778V54.5h-2.057v-5.239q0-.875-.455-1.369-.449-.494-1.244-.494-.54 0-.96.238-.416.234-.654.676-.233.444-.233 1.074"/>
  <path stroke="#58da95" stroke-linejoin="round" d="M634 48h46"/>
  <path stroke="#58da95" stroke-linecap="square" stroke-linejoin="round" d="m655 42 6 6-6 6"/>
  <path fill="#102b2d" d="M700.576 45.648h-1.773a2.7 2.7 0 0 0-.38-1 2.8 2.8 0 0 0-.682-.733q-.403-.301-.904-.455a3.5 3.5 0 0 0-1.051-.153q-1.005 0-1.801.505-.79.507-1.25 1.483-.454.977-.454 2.387 0 1.42.454 2.398.46.977 1.256 1.477.795.5 1.79.5.55 0 1.045-.148.5-.153.903-.449a2.74 2.74 0 0 0 1.074-1.71l1.773.006a4.8 4.8 0 0 1-.551 1.58q-.404.716-1.04 1.238-.63.517-1.443.801a5.3 5.3 0 0 1-1.773.284q-1.51 0-2.693-.716-1.182-.72-1.864-2.062-.676-1.34-.676-3.2 0-1.863.682-3.198.682-1.341 1.864-2.057 1.182-.72 2.687-.721.927 0 1.727.267a4.6 4.6 0 0 1 1.449.772q.643.506 1.063 1.239.42.727.568 1.665m5.641 8.028q-1.229 0-2.142-.562a3.8 3.8 0 0 1-1.421-1.574q-.506-1.012-.506-2.364 0-1.358.506-2.375a3.8 3.8 0 0 1 1.421-1.58q.913-.562 2.142-.562 1.227 0 2.142.563t1.42 1.58q.506 1.016.506 2.374 0 1.353-.506 2.364a3.8 3.8 0 0 1-1.42 1.574q-.915.562-2.142.562m.005-1.426q.796 0 1.318-.42.524-.42.773-1.12.256-.699.256-1.54 0-.834-.256-1.534a2.5 2.5 0 0 0-.773-1.13q-.522-.426-1.318-.426-.801 0-1.329.426a2.54 2.54 0 0 0-.779 1.13q-.25.7-.25 1.534 0 .841.25 1.54.256.7.779 1.12.528.42 1.329.42m7.658-3.932V53.5h-1.699v-8.727h1.631v1.42h.108q.301-.693.943-1.113.648-.42 1.631-.42.891 0 1.562.374.67.37 1.04 1.102.369.733.369 1.813V53.5h-1.699v-5.347q0-.948-.494-1.483-.495-.54-1.358-.54-.59 0-1.051.256-.455.255-.722.75-.261.489-.261 1.182m14.403-1.415-1.539.273a1.8 1.8 0 0 0-.307-.562 1.5 1.5 0 0 0-.557-.438q-.352-.17-.881-.17-.721 0-1.204.324-.483.318-.483.823 0 .438.324.705t1.045.438l1.386.318q1.206.278 1.796.858t.591 1.505q0 .784-.455 1.398-.449.608-1.255.955-.802.345-1.858.346-1.467 0-2.392-.625-.927-.63-1.137-1.79l1.642-.25q.154.642.631.972.477.324 1.244.324.835 0 1.336-.347.5-.352.5-.858a.9.9 0 0 0-.307-.687q-.302-.279-.926-.42l-1.478-.325q-1.22-.277-1.807-.886-.579-.608-.579-1.54a2.2 2.2 0 0 1 .432-1.352q.431-.579 1.193-.903.762-.33 1.744-.33 1.415 0 2.228.614.812.608 1.073 1.63m7.567 2.978v-5.108h1.705V53.5h-1.671v-1.511h-.091q-.3.699-.966 1.164-.658.46-1.642.46-.84 0-1.488-.369-.642-.375-1.012-1.108-.363-.732-.363-1.812v-5.551h1.699v5.346q0 .893.494 1.42.493.53 1.284.53.477 0 .949-.24.477-.239.79-.721.318-.483.312-1.227m3.987 3.619v-8.727h1.631v1.42h.108q.273-.72.892-1.125.62-.41 1.483-.409.875 0 1.466.41.596.408.881 1.124h.09a2.46 2.46 0 0 1 .995-1.113q.681-.42 1.625-.42 1.187 0 1.937.743.756.745.756 2.245V53.5h-1.699v-5.693q0-.887-.483-1.284a1.76 1.76 0 0 0-1.153-.398q-.83 0-1.29.511-.46.506-.46 1.301V53.5h-1.693v-5.801q0-.71-.444-1.142-.443-.432-1.153-.432-.483 0-.892.256a1.87 1.87 0 0 0-.653.699 2.14 2.14 0 0 0-.245 1.04v5.38zm17.902.176q-1.29 0-2.221-.551a3.73 3.73 0 0 1-1.432-1.562q-.5-1.012-.5-2.37 0-1.341.5-2.363a3.9 3.9 0 0 1 1.409-1.597q.909-.574 2.125-.574.738 0 1.432.244.693.245 1.244.767.552.524.869 1.358.32.83.319 2.017v.603h-6.938v-1.273h5.273q0-.67-.273-1.187a2.06 2.06 0 0 0-.767-.824q-.488-.301-1.148-.301-.716 0-1.25.352a2.36 2.36 0 0 0-.818.909 2.6 2.6 0 0 0-.284 1.21v.994q0 .876.307 1.489.312.614.869.938.557.318 1.301.318.483 0 .881-.137.397-.142.688-.42.289-.279.443-.688l1.608.29q-.194.71-.693 1.245-.495.528-1.245.823-.744.29-1.699.29m5.63-.176v-8.727h1.642v1.386h.091a2.1 2.1 0 0 1 .84-1.108 2.4 2.4 0 0 1 1.375-.409 7 7 0 0 1 .722.04v1.625a3 3 0 0 0-.364-.063 3.5 3.5 0 0 0-.522-.04q-.603 0-1.074.256a1.9 1.9 0 0 0-1.012 1.71v5.33z"/>
  <path stroke="#58da95" stroke-linejoin="round" d="M392.5 136V90"/>
  <path stroke="#58da95" stroke-linecap="square" stroke-linejoin="round" d="m386.5 115 6-6 6 6"/>
  <rect width="160" height="74" x="312" y="141" stroke="#58da95" stroke-dasharray="5 5" stroke-width="2" rx="7"/>
  <path fill="#102b2d" d="M341.442 184.5h-3.943v-11.636h4.023q1.733 0 2.977.698a4.67 4.67 0 0 1 1.921 1.995q.67 1.3.67 3.113 0 1.819-.676 3.125a4.67 4.67 0 0 1-1.937 2.006q-1.262.699-3.035.699m-1.835-1.824h1.733q1.216 0 2.029-.443a2.84 2.84 0 0 0 1.221-1.335q.41-.892.409-2.228 0-1.335-.409-2.215-.41-.887-1.21-1.324-.795-.444-1.977-.443h-1.796zm13.259 1.994q-1.313 0-2.267-.545a3.7 3.7 0 0 1-1.461-1.557q-.51-1.011-.511-2.38 0-1.347.511-2.364a3.87 3.87 0 0 1 1.444-1.591q.925-.574 2.176-.574.807 0 1.523.261.722.256 1.272.796.557.54.875 1.375.318.83.318 1.977v.631h-7.153v-1.387h5.182a2.2 2.2 0 0 0-.256-1.051 1.85 1.85 0 0 0-.699-.733 1.96 1.96 0 0 0-1.034-.267q-.63 0-1.108.307a2.1 2.1 0 0 0-.744.796 2.3 2.3 0 0 0-.267 1.074v1.21q0 .76.278 1.307.279.539.779.829.5.284 1.17.284.448 0 .813-.125.363-.13.63-.381.267-.25.404-.619l1.92.216a3 3 0 0 1-.693 1.33 3.4 3.4 0 0 1-1.295.875q-.79.306-1.807.306m5.621 3.103v-12h2.022v1.443h.12q.159-.318.448-.676a2.4 2.4 0 0 1 .785-.62q.494-.261 1.261-.261 1.011 0 1.824.517.818.512 1.295 1.517.483 1 .483 2.455 0 1.437-.471 2.443-.472 1.005-1.285 1.534a3.3 3.3 0 0 1-1.84.528q-.75 0-1.245-.25a2.5 2.5 0 0 1-.795-.602 4 4 0 0 1-.46-.676h-.086v4.648zm2.017-7.637q0 .847.238 1.483.245.637.699.995.46.352 1.114.352.681 0 1.142-.364.46-.369.693-1.005.239-.642.239-1.461a4.2 4.2 0 0 0-.233-1.443q-.234-.63-.694-.988t-1.147-.358q-.66 0-1.12.346-.46.347-.698.972-.233.625-.233 1.471m11.846 4.534q-1.313 0-2.267-.545a3.7 3.7 0 0 1-1.46-1.557q-.511-1.011-.511-2.38 0-1.347.511-2.364a3.87 3.87 0 0 1 1.443-1.591q.926-.574 2.176-.574a4.4 4.4 0 0 1 1.523.261q.721.256 1.273.796.557.54.875 1.375.318.83.318 1.977v.631h-7.154v-1.387h5.182a2.2 2.2 0 0 0-.255-1.051q-.25-.466-.699-.733a1.97 1.97 0 0 0-1.034-.267q-.631 0-1.108.307a2.1 2.1 0 0 0-.745.796 2.3 2.3 0 0 0-.267 1.074v1.21q0 .76.279 1.307.278.539.778.829.5.284 1.171.284.449 0 .812-.125.363-.13.631-.381.267-.25.403-.619l1.921.216a3 3 0 0 1-.694 1.33 3.4 3.4 0 0 1-1.295.875q-.79.306-1.807.306m7.678-5.284v5.114h-2.057v-8.727h1.966v1.483h.102q.302-.733.96-1.165.665-.432 1.642-.432.904 0 1.574.386.676.387 1.046 1.12.375.732.369 1.778v5.557h-2.057v-5.239q0-.874-.454-1.369-.45-.495-1.245-.494-.54 0-.96.238a1.66 1.66 0 0 0-.653.676q-.233.444-.233 1.074m10.932 5.267q-1.03 0-1.841-.528-.813-.529-1.284-1.534-.472-1.006-.472-2.443 0-1.455.477-2.455.483-1.005 1.301-1.517a3.34 3.34 0 0 1 1.824-.517q.768 0 1.262.261.493.256.784.62.289.357.449.676h.085v-4.352h2.062V184.5h-2.022v-1.375h-.125q-.16.318-.461.676-.3.353-.795.602-.495.25-1.244.25m.573-1.687q.654 0 1.114-.352.46-.358.699-.995.239-.636.239-1.483 0-.846-.239-1.471-.233-.626-.693-.972-.454-.346-1.12-.346-.687 0-1.147.358t-.694.988a4.2 4.2 0 0 0-.232 1.443q0 .819.232 1.461.24.636.699 1.005.467.364 1.142.364m10.13 1.704q-1.313 0-2.267-.545a3.7 3.7 0 0 1-1.461-1.557q-.511-1.011-.511-2.38 0-1.347.511-2.364a3.87 3.87 0 0 1 1.444-1.591q.925-.574 2.176-.574.807 0 1.522.261.722.256 1.273.796.557.54.875 1.375.318.83.318 1.977v.631h-7.153v-1.387h5.182a2.2 2.2 0 0 0-.256-1.051q-.25-.466-.699-.733a1.96 1.96 0 0 0-1.034-.267q-.63 0-1.108.307a2.1 2.1 0 0 0-.744.796 2.3 2.3 0 0 0-.267 1.074v1.21q0 .76.278 1.307.279.539.779.829.5.284 1.17.284.448 0 .813-.125.363-.13.63-.381.267-.25.404-.619l1.92.216a3 3 0 0 1-.693 1.33 3.4 3.4 0 0 1-1.296.875q-.789.306-1.806.306m7.677-5.284v5.114h-2.057v-8.727h1.966v1.483h.103q.3-.733.96-1.165.664-.432 1.642-.432.903 0 1.574.386.675.387 1.045 1.12.375.732.369 1.778v5.557h-2.056v-5.239q0-.874-.455-1.369-.449-.495-1.244-.494-.54 0-.96.238a1.66 1.66 0 0 0-.654.676q-.233.444-.233 1.074m11.5 5.284q-1.307 0-2.244-.573a3.84 3.84 0 0 1-1.438-1.586q-.5-1.017-.5-2.341 0-1.329.512-2.346a3.8 3.8 0 0 1 1.443-1.591q.938-.574 2.216-.574 1.062 0 1.881.392.823.387 1.312 1.097.489.704.557 1.647h-1.966q-.12-.63-.568-1.051-.444-.426-1.188-.426-.63 0-1.108.341-.477.336-.744.966-.261.63-.261 1.511 0 .892.261 1.534.261.637.733.983a1.87 1.87 0 0 0 1.119.341q.454 0 .813-.17.363-.176.608-.506.244-.33.335-.801h1.966a3.4 3.4 0 0 1-.546 1.642 3.2 3.2 0 0 1-1.284 1.114q-.812.397-1.909.397m5.428-.17v-8.727h2.057v8.727zm1.034-9.966a1.2 1.2 0 0 1-.841-.324 1.04 1.04 0 0 1-.352-.79q0-.465.352-.789.352-.33.841-.33.494 0 .841.33.352.324.352.789 0 .461-.352.79a1.2 1.2 0 0 1-.841.324m7.001 10.136q-1.312 0-2.267-.545a3.7 3.7 0 0 1-1.46-1.557q-.511-1.011-.511-2.38 0-1.347.511-2.364a3.87 3.87 0 0 1 1.443-1.591q.927-.574 2.176-.574a4.4 4.4 0 0 1 1.523.261q.721.256 1.273.796.557.54.875 1.375.318.83.318 1.977v.631h-7.153v-1.387h5.181a2.2 2.2 0 0 0-.255-1.051q-.25-.466-.699-.733a1.97 1.97 0 0 0-1.034-.267q-.631 0-1.108.307a2.1 2.1 0 0 0-.745.796 2.3 2.3 0 0 0-.267 1.074v1.21q0 .76.279 1.307.278.539.778.829.5.284 1.171.284.449 0 .812-.125.364-.13.631-.381.267-.25.403-.619l1.921.216a3 3 0 0 1-.693 1.33 3.4 3.4 0 0 1-1.296.875q-.79.306-1.807.306m12.519-6.59-1.875.204a1.5 1.5 0 0 0-.279-.534 1.4 1.4 0 0 0-.522-.403q-.33-.154-.807-.154-.642 0-1.08.279-.432.278-.426.721a.75.75 0 0 0 .279.619q.29.24.954.393l1.489.318q1.238.267 1.841.846.607.58.613 1.517a2.38 2.38 0 0 1-.483 1.455q-.471.625-1.312.977t-1.932.352q-1.602 0-2.58-.67-.976-.677-1.164-1.881l2.005-.193q.136.59.58.892.443.301 1.153.301.733 0 1.176-.301.45-.302.449-.744a.77.77 0 0 0-.289-.619q-.285-.245-.887-.375l-1.488-.313q-1.257-.261-1.858-.881-.603-.625-.597-1.579-.006-.807.437-1.398.45-.596 1.245-.92.8-.33 1.846-.33 1.535 0 2.415.653.887.654 1.097 1.768"/>
  <path stroke="#58da95" stroke-linecap="round" stroke-linejoin="round" d="m573 183-6-6 6-6"/>
  <path stroke="#58da95" stroke-linejoin="round" d="M657 59v110a8 8 0 0 1-8 8H477"/>
</svg>
