<svg xmlns="http://www.w3.org/2000/svg" width="880" height="606" fill="none">
  <circle cx="537.5" cy="389.5" r="199.5" fill="#63a6e9" style="mix-blend-mode:multiply"/>
  <circle cx="341.5" cy="389.5" r="199.5" fill="#fca326" opacity=".72" style="mix-blend-mode:multiply"/>
  <ellipse cx="441" cy="216.5" fill="#a989f5" rx="200" ry="199.5" style="mix-blend-mode:multiply"/>
  <path fill="#1f1f1f" d="M403.612 124.638q-.086-.86-.732-1.335-.646-.476-1.754-.476-.753 0-1.271.213-.519.206-.796.575-.27.37-.27.838-.014.391.164.682.184.291.504.504.32.207.739.362.418.15.895.256l1.306.313a9 9 0 0 1 1.747.568q.796.356 1.378.873.583.519.902 1.222.327.703.334 1.612-.007 1.335-.682 2.316-.667.972-1.932 1.512-1.256.533-3.032.533-1.761 0-3.068-.54-1.3-.54-2.032-1.598-.724-1.065-.76-2.635h2.976q.05.732.419 1.222.376.483 1.002.731.632.242 1.427.242.781 0 1.357-.227.582-.228.902-.633.32-.404.319-.93a1.2 1.2 0 0 0-.291-.824q-.284-.334-.838-.568a8.6 8.6 0 0 0-1.342-.426l-1.584-.398q-1.84-.447-2.905-1.399c-1.065-.952-1.063-1.489-1.058-2.564q-.007-1.321.703-2.308.717-.987 1.967-1.541t2.841-.554q1.62 0 2.827.554 1.214.554 1.889 1.541t.696 2.287zm10.96-.547v2.273h-6.569v-2.273zm-5.078-2.614h3.026v10.171q0 .419.128.653a.7.7 0 0 0 .355.32q.234.092.54.092.213 0 .426-.035.213-.043.326-.064l.476 2.251a8 8 0 0 1-.639.163 5 5 0 0 1-1.001.121q-1.095.043-1.918-.291a2.7 2.7 0 0 1-1.271-1.037q-.454-.703-.448-1.776zM416.543 135v-10.909h2.934v1.903h.113q.298-1.015 1.002-1.534a2.63 2.63 0 0 1 1.619-.525 4.6 4.6 0 0 1 .952.106v2.685a4 4 0 0 0-.59-.114 5 5 0 0 0-.689-.05 2.4 2.4 0 0 0-1.193.292 2.14 2.14 0 0 0-.824.795 2.3 2.3 0 0 0-.298 1.179V135zm15.18-4.645v-6.264h3.025V135h-2.905v-1.982h-.113a3.22 3.22 0 0 1-1.229 1.542q-.852.582-2.081.582-1.094 0-1.925-.497a3.4 3.4 0 0 1-1.299-1.413q-.462-.917-.469-2.195v-6.946h3.025v6.406q.007.966.519 1.527t1.371.561q.546 0 1.022-.248.476-.256.767-.753.298-.498.292-1.229m10.374 4.858q-1.675 0-2.883-.71a4.8 4.8 0 0 1-1.847-1.989q-.639-1.271-.639-2.926 0-1.675.646-2.94a4.8 4.8 0 0 1 1.854-1.982q1.2-.717 2.855-.717 1.428 0 2.5.518a4.2 4.2 0 0 1 1.697 1.456q.626.938.689 2.202h-2.855q-.12-.817-.639-1.314-.511-.504-1.342-.504-.704 0-1.229.383-.518.376-.81 1.101-.291.725-.291 1.754 0 1.044.284 1.776.291.732.817 1.115.525.384 1.229.384.518 0 .93-.213a1.8 1.8 0 0 0 .689-.618q.277-.412.362-.988h2.855q-.07 1.251-.681 2.202a4.1 4.1 0 0 1-1.669 1.477q-1.066.534-2.522.533m12.612-11.122v2.273h-6.569v-2.273zm-5.078-2.614h3.026v10.171q0 .419.127.653a.7.7 0 0 0 .356.32q.234.092.539.092.213 0 .426-.035.213-.043.327-.064l.476 2.251a9 9 0 0 1-.639.163 5 5 0 0 1-1.002.121q-1.094.043-1.917-.291a2.68 2.68 0 0 1-1.272-1.037q-.455-.703-.447-1.776zm14.045 8.878v-6.264h3.025V135h-2.905v-1.982h-.113a3.22 3.22 0 0 1-1.229 1.542q-.852.582-2.081.582-1.094 0-1.925-.497a3.4 3.4 0 0 1-1.299-1.413q-.462-.917-.469-2.195v-6.946h3.026v6.406q.006.966.518 1.527t1.371.561a2.2 2.2 0 0 0 1.023-.248q.475-.256.767-.753.297-.498.291-1.229m5.445 4.645v-10.909h2.934v1.903h.113q.299-1.015 1.002-1.534a2.63 2.63 0 0 1 1.619-.525 4.6 4.6 0 0 1 .952.106v2.685a4 4 0 0 0-.59-.114 5 5 0 0 0-.689-.05q-.667 0-1.193.292a2.14 2.14 0 0 0-.824.795 2.3 2.3 0 0 0-.298 1.179V135zm12.648.213q-1.683 0-2.898-.682a4.67 4.67 0 0 1-1.861-1.946q-.653-1.264-.653-2.99 0-1.683.653-2.954a4.83 4.83 0 0 1 1.84-1.982q1.193-.71 2.798-.71 1.08 0 2.01.348.937.34 1.634 1.03.703.689 1.093 1.733.391 1.037.391 2.429v.831h-9.212v-1.875h6.364q0-.654-.284-1.158a2.03 2.03 0 0 0-.789-.788q-.497-.292-1.157-.292-.69 0-1.222.32-.525.312-.824.845a2.4 2.4 0 0 0-.305 1.172v1.783q0 .809.298 1.399.305.59.86.909t1.313.32q.505 0 .924-.143.418-.141.717-.426.298-.284.455-.696l2.798.185a3.8 3.8 0 0 1-.874 1.761q-.653.747-1.69 1.165-1.03.412-2.379.412"/>
  <path fill="#fff" d="M382.618 319.638q-.085-.86-.732-1.335-.646-.476-1.754-.476-.753 0-1.271.213-.519.206-.796.575-.27.37-.27.838-.014.39.164.682.184.291.504.504.32.206.738.362.42.15.895.256l1.307.313a9 9 0 0 1 1.747.568q.796.355 1.378.873.582.519.902 1.222.327.703.334 1.612-.007 1.335-.682 2.315-.667.973-1.932 1.513-1.257.533-3.032.533-1.762 0-3.069-.54-1.299-.54-2.031-1.598-.724-1.065-.76-2.635h2.976q.05.732.419 1.222.376.483 1.002.731.632.242 1.427.242.781 0 1.357-.227.582-.228.902-.633.32-.404.319-.93a1.2 1.2 0 0 0-.291-.824q-.284-.333-.838-.568a8.6 8.6 0 0 0-1.342-.426l-1.584-.398q-1.84-.447-2.905-1.399t-1.058-2.564q-.008-1.321.703-2.308.717-.987 1.967-1.541 1.251-.555 2.841-.554 1.62 0 2.827.554 1.215.554 1.889 1.541.675.987.696 2.287zm10.087 10.575q-1.656 0-2.863-.703a4.8 4.8 0 0 1-1.853-1.975q-.654-1.271-.654-2.947 0-1.69.654-2.955a4.75 4.75 0 0 1 1.853-1.974q1.207-.71 2.863-.71t2.855.71a4.75 4.75 0 0 1 1.861 1.974q.653 1.264.653 2.955 0 1.676-.653 2.947a4.8 4.8 0 0 1-1.861 1.975q-1.2.703-2.855.703m.014-2.344q.753 0 1.257-.426.504-.433.76-1.179.263-.746.263-1.697t-.263-1.698q-.256-.745-.76-1.179-.504-.433-1.257-.433-.76 0-1.279.433-.51.433-.774 1.179-.255.745-.255 1.698 0 .951.255 1.697.264.745.774 1.179.519.426 1.279.426m7.322 6.222v-15h2.983v1.832h.135q.2-.44.576-.895.383-.46.994-.767.618-.312 1.534-.312 1.193 0 2.202.625 1.008.617 1.612 1.868.603 1.242.604 3.118 0 1.825-.59 3.082-.582 1.25-1.591 1.896a4.1 4.1 0 0 1-2.244.64q-.88 0-1.499-.292a3.1 3.1 0 0 1-1.001-.731 3.7 3.7 0 0 1-.597-.902h-.092v5.838zm2.962-9.546q0 .973.27 1.698.27.724.781 1.129.511.398 1.243.398.738 0 1.25-.405.512-.412.774-1.136.27-.732.27-1.684 0-.943-.263-1.662-.263-.717-.774-1.122t-1.257-.405q-.738 0-1.25.391-.504.391-.774 1.108t-.27 1.69m12.72-.852V330h-3.025v-14.545h2.94v5.561h.128a3.1 3.1 0 0 1 1.193-1.513q.823-.555 2.067-.554 1.136 0 1.981.497a3.3 3.3 0 0 1 1.321 1.413q.476.917.469 2.195V330h-3.026v-6.406q.008-1.01-.511-1.57-.511-.561-1.435-.561-.618 0-1.093.263a1.86 1.86 0 0 0-.739.767q-.262.497-.27 1.2m9.455 6.307v-10.909h3.026V330zm1.52-12.315q-.675 0-1.158-.448a1.45 1.45 0 0 1-.476-1.086q0-.626.476-1.073a1.63 1.63 0 0 1 1.158-.454q.675 0 1.15.454.483.447.483 1.073 0 .632-.483 1.086-.475.447-1.15.448m13.006 4.517-2.77.17a1.4 1.4 0 0 0-.305-.639 1.64 1.64 0 0 0-.618-.462 2.1 2.1 0 0 0-.902-.177q-.703 0-1.186.298-.483.291-.483.781 0 .391.312.661.313.27 1.073.433l1.974.398q1.591.327 2.372 1.051.782.724.782 1.903 0 1.073-.633 1.882-.624.81-1.718 1.265-1.087.447-2.507.447-2.167 0-3.452-.902-1.278-.909-1.499-2.472l2.976-.156q.135.661.654 1.009.518.34 1.328.341.795 0 1.278-.306.49-.312.497-.802a.83.83 0 0 0-.348-.675q-.34-.27-1.051-.412l-1.889-.376q-1.598-.32-2.379-1.108-.774-.789-.774-2.01 0-1.052.568-1.811.575-.76 1.612-1.172 1.044-.412 2.443-.412 2.067 0 3.253.873 1.192.874 1.392 2.38m7.956-3.111v2.273h-6.569v-2.273zm-5.078-2.614h3.026v10.171q0 .419.128.653a.7.7 0 0 0 .355.32q.234.092.539.092.214 0 .427-.035.213-.043.326-.064l.476 2.251a8 8 0 0 1-.639.163 5 5 0 0 1-1.001.121q-1.095.043-1.918-.291a2.67 2.67 0 0 1-1.271-1.037q-.455-.704-.448-1.776zM449.631 330v-10.909h3.026V330zm1.52-12.315q-.675 0-1.158-.448a1.45 1.45 0 0 1-.475-1.086q0-.626.475-1.073a1.63 1.63 0 0 1 1.158-.454q.675 0 1.151.454.483.447.483 1.073 0 .632-.483 1.086a1.62 1.62 0 0 1-1.151.448m8.858 12.528q-1.675 0-2.883-.71a4.8 4.8 0 0 1-1.847-1.989q-.639-1.271-.639-2.926 0-1.676.646-2.94a4.8 4.8 0 0 1 1.854-1.982q1.2-.717 2.855-.717 1.428 0 2.5.518a4.2 4.2 0 0 1 1.698 1.456q.624.938.689 2.202h-2.856q-.12-.818-.639-1.314-.511-.504-1.342-.504-.703 0-1.229.383-.518.376-.809 1.101t-.292 1.754q0 1.044.284 1.776.292.731.817 1.115.526.384 1.229.384.519 0 .93-.214.42-.213.689-.617.278-.412.362-.988h2.856q-.072 1.251-.682 2.202a4.1 4.1 0 0 1-1.669 1.477q-1.066.533-2.522.533m9.92-.007q-1.044 0-1.86-.362a3 3 0 0 1-1.293-1.087q-.469-.724-.469-1.804 0-.909.334-1.527a2.7 2.7 0 0 1 .909-.994 4.4 4.4 0 0 1 1.307-.568 10 10 0 0 1 1.548-.27 40 40 0 0 0 1.534-.185q.583-.092.846-.27.262-.177.262-.525v-.043q0-.675-.426-1.044-.419-.369-1.193-.369-.817 0-1.3.362a1.67 1.67 0 0 0-.639.895l-2.798-.228a3.8 3.8 0 0 1 .838-1.718q.625-.732 1.612-1.122.995-.399 2.301-.398.909 0 1.74.213a4.6 4.6 0 0 1 1.485.66q.653.448 1.03 1.151.375.696.376 1.669V330h-2.869v-1.513h-.086a3.1 3.1 0 0 1-.703.902 3.3 3.3 0 0 1-1.058.604q-.618.213-1.428.213m.867-2.088q.668 0 1.179-.263.511-.27.802-.724.292-.455.292-1.03v-1.158a1.6 1.6 0 0 1-.391.171 7 7 0 0 1-.547.135q-.305.056-.611.106l-.554.078a3.7 3.7 0 0 0-.93.249 1.5 1.5 0 0 0-.618.461q-.22.285-.22.711 0 .617.447.944.455.32 1.151.32m13.427-9.027v2.273h-6.57v-2.273zm-5.078-2.614h3.025v10.171q0 .419.128.653a.7.7 0 0 0 .355.32q.234.092.54.092.213 0 .426-.035.213-.043.327-.064l.476 2.251a9 9 0 0 1-.64.163 5 5 0 0 1-1.001.121q-1.093.043-1.918-.291a2.7 2.7 0 0 1-1.271-1.037q-.454-.704-.447-1.776zm11.903 13.736q-1.683 0-2.898-.682a4.66 4.66 0 0 1-1.86-1.946q-.654-1.264-.654-2.99 0-1.683.654-2.954a4.83 4.83 0 0 1 1.839-1.982q1.193-.71 2.798-.71 1.08 0 2.01.348.938.34 1.634 1.03.703.689 1.094 1.733.39 1.037.39 2.429v.831h-9.211v-1.875h6.363q0-.654-.284-1.158a2.03 2.03 0 0 0-.788-.788 2.24 2.24 0 0 0-1.158-.292q-.688 0-1.222.32-.526.312-.823.845-.298.525-.306 1.172v1.783q0 .809.298 1.399.306.59.86.909t1.314.32q.504 0 .923-.143a1.84 1.84 0 0 0 1.172-1.122l2.798.185a3.8 3.8 0 0 1-.873 1.761q-.654.746-1.691 1.165-1.029.412-2.379.412m11.001-.035a4.1 4.1 0 0 1-2.251-.64q-1.002-.646-1.591-1.896-.582-1.257-.582-3.082 0-1.875.603-3.118.604-1.25 1.606-1.868a4.1 4.1 0 0 1 2.208-.625q.916 0 1.527.312.618.306.995.767.383.455.582.895h.092v-5.468h3.019V330h-2.983v-1.747h-.128a4 4 0 0 1-.604.902 3 3 0 0 1-1.001.731q-.61.292-1.492.292m.959-2.408q.732 0 1.236-.398.511-.405.781-1.129.277-.725.277-1.698 0-.972-.27-1.69-.269-.717-.781-1.108-.511-.39-1.243-.391-.745 0-1.257.405t-.774 1.122q-.263.719-.263 1.662 0 .952.263 1.684.27.724.774 1.136.512.405 1.257.405m-100.869 15.868q-.086-.86-.731-1.335-.647-.476-1.755-.476-.753 0-1.271.213-.519.206-.795.575-.27.37-.27.838-.014.39.163.682.184.291.504.504.32.206.739.362.419.15.895.256l1.307.313a9.2 9.2 0 0 1 1.747.568q.795.355 1.378.873.582.519.902 1.222.326.703.333 1.612-.007 1.335-.681 2.315-.668.973-1.932 1.513-1.257.533-3.033.533-1.761 0-3.068-.54-1.3-.54-2.031-1.598-.725-1.065-.76-2.635h2.976q.049.732.419 1.222a2.3 2.3 0 0 0 1.001.731q.632.242 1.428.242.78 0 1.356-.227.582-.228.902-.633.32-.404.32-.93a1.2 1.2 0 0 0-.291-.824q-.285-.333-.838-.568a8.6 8.6 0 0 0-1.343-.426l-1.584-.398q-1.839-.447-2.904-1.399-1.066-.952-1.059-2.564-.006-1.321.703-2.308.718-.987 1.968-1.541 1.25-.555 2.841-.554 1.618 0 2.826.554 1.215.554 1.89 1.541.673.987.696 2.287zM407.297 354v-10.909h3.026V354zm1.52-12.315q-.675 0-1.158-.448a1.45 1.45 0 0 1-.475-1.086q0-.626.475-1.073a1.63 1.63 0 0 1 1.158-.454q.674 0 1.151.454.483.447.483 1.073 0 .632-.483 1.086a1.62 1.62 0 0 1-1.151.448M412.746 354v-10.909h2.884v1.925h.128a3.02 3.02 0 0 1 1.136-1.513q.795-.554 1.904-.554 1.121 0 1.91.561.789.553 1.051 1.506h.114a2.9 2.9 0 0 1 1.207-1.499q.88-.568 2.081-.568 1.527 0 2.479.973.959.966.959 2.741V354h-3.019v-6.74q0-.91-.483-1.364t-1.207-.454q-.824 0-1.286.525-.46.519-.461 1.371V354h-2.934v-6.804q0-.803-.461-1.278-.455-.476-1.2-.476-.505 0-.91.255a1.76 1.76 0 0 0-.632.704q-.234.447-.234 1.051V354zm18.243 4.091v-15h2.983v1.832h.134q.2-.44.576-.895.383-.46.994-.767.618-.312 1.534-.312 1.194 0 2.202.625 1.008.618 1.612 1.868.604 1.243.604 3.118 0 1.825-.59 3.082-.582 1.25-1.591 1.896a4.1 4.1 0 0 1-2.244.64q-.88 0-1.499-.292a3.1 3.1 0 0 1-1.001-.731 3.8 3.8 0 0 1-.597-.902h-.092v5.838zm2.961-9.546q0 .974.27 1.698t.781 1.129q.512.398 1.243.398.739 0 1.25-.405.512-.412.774-1.136.27-.732.27-1.684 0-.944-.262-1.662-.264-.717-.775-1.122t-1.257-.405q-.738 0-1.25.391-.504.391-.774 1.108t-.27 1.69m12.72-9.09V354h-3.025v-14.545zM449.094 354v-10.909h3.026V354zm1.52-12.315q-.675 0-1.158-.448a1.45 1.45 0 0 1-.476-1.086q0-.626.476-1.073a1.63 1.63 0 0 1 1.158-.454q.675 0 1.151.454.482.447.482 1.073 0 .632-.482 1.086a1.62 1.62 0 0 1-1.151.448m8.858 12.528q-1.675 0-2.883-.71a4.8 4.8 0 0 1-1.847-1.989q-.639-1.271-.639-2.926 0-1.676.646-2.94a4.8 4.8 0 0 1 1.854-1.982q1.2-.717 2.855-.717 1.428 0 2.5.518a4.2 4.2 0 0 1 1.697 1.456q.626.938.689 2.202h-2.855q-.12-.817-.639-1.314-.511-.504-1.342-.504-.704 0-1.229.383-.518.376-.81 1.101-.291.725-.291 1.754 0 1.044.284 1.776.292.731.817 1.115t1.229.384q.518 0 .93-.214.42-.213.689-.617.277-.412.362-.988h2.855q-.07 1.251-.681 2.202a4.1 4.1 0 0 1-1.669 1.477q-1.066.533-2.522.533m6.81-.213v-10.909h3.025V354zm1.519-12.315q-.674 0-1.157-.448a1.45 1.45 0 0 1-.476-1.086q0-.626.476-1.073a1.63 1.63 0 0 1 1.157-.454q.675 0 1.151.454.483.447.483 1.073 0 .632-.483 1.086a1.62 1.62 0 0 1-1.151.448m9.732 1.406v2.273h-6.569v-2.273zm-5.078-2.614h3.026v10.171q0 .419.128.653a.7.7 0 0 0 .355.32q.234.092.54.092.213 0 .426-.035.213-.043.326-.064l.476 2.251a8 8 0 0 1-.639.163 5 5 0 0 1-1.001.121q-1.095.043-1.918-.291a2.67 2.67 0 0 1-1.271-1.037q-.455-.703-.448-1.776zm8.917 17.614q-.575 0-1.079-.092a4 4 0 0 1-.824-.221l.682-2.258q.532.163.958.177.434.015.746-.198.32-.214.519-.725l.177-.462-3.913-11.221h3.182l2.258 8.011h.114l2.28-8.011h3.203l-4.24 12.088a5.1 5.1 0 0 1-.831 1.534q-.519.66-1.314 1.016-.796.362-1.918.362m45.854-103.708h-2.177a2.1 2.1 0 0 0-.244-.751 1.9 1.9 0 0 0-.472-.567 2.1 2.1 0 0 0-.667-.358 2.6 2.6 0 0 0-.81-.124q-.79 0-1.377.393-.586.387-.91 1.133-.323.741-.323 1.8 0 1.089.323 1.83.329.74.915 1.118t1.357.378q.433 0 .801-.114.373-.115.661-.333.288-.225.477-.542.194-.318.269-.726l2.177.01a3.9 3.9 0 0 1-.422 1.352 4.1 4.1 0 0 1-.9 1.158 4.2 4.2 0 0 1-1.343.806q-.776.293-1.755.293-1.362 0-2.436-.616-1.068-.616-1.69-1.785-.617-1.169-.617-2.829 0-1.665.627-2.834.627-1.168 1.7-1.78 1.074-.616 2.416-.616.885 0 1.641.249.76.248 1.347.725.587.472.955 1.159.373.686.477 1.571m4.954 6.766q-1.158 0-2.003-.492a3.37 3.37 0 0 1-1.298-1.382q-.457-.89-.457-2.063 0-1.184.457-2.069a3.33 3.33 0 0 1 1.298-1.382q.845-.497 2.003-.497 1.16 0 1.999.497.845.492 1.302 1.382.458.885.458 2.069 0 1.173-.458 2.063a3.35 3.35 0 0 1-1.302 1.382q-.84.492-1.999.492m.01-1.64q.528 0 .88-.299.354-.303.532-.825.184-.522.184-1.188t-.184-1.188q-.178-.523-.532-.826-.352-.303-.88-.303-.532 0-.895.303a1.9 1.9 0 0 0-.542.826 3.7 3.7 0 0 0-.179 1.188q0 .666.179 1.188.185.522.542.825.364.299.895.299m5.126 1.491v-7.636h2.018v1.347h.09q.238-.67.795-1.059.558-.388 1.333-.388.785 0 1.337.393.552.388.736 1.054h.079q.234-.656.846-1.049.616-.398 1.456-.398 1.07 0 1.735.681.672.677.672 1.919V261H546.3v-4.718q0-.636-.338-.955a1.2 1.2 0 0 0-.846-.318q-.576 0-.899.368-.324.363-.324.96V261h-2.053v-4.763q0-.562-.323-.895-.318-.333-.84-.333-.354 0-.637.179a1.23 1.23 0 0 0-.442.492 1.6 1.6 0 0 0-.164.736V261zm12.769 2.864v-10.5h2.089v1.282h.094q.14-.308.403-.626a2.1 2.1 0 0 1 .696-.537q.432-.219 1.074-.219.834 0 1.541.438.706.432 1.128 1.307.423.87.423 2.183 0 1.278-.413 2.157-.407.875-1.113 1.328a2.86 2.86 0 0 1-1.571.447q-.617 0-1.049-.204a2.15 2.15 0 0 1-.701-.512 2.6 2.6 0 0 1-.418-.631h-.065v4.087zm2.074-6.682q0 .681.189 1.188t.546.791q.359.278.87.278.518 0 .875-.283.359-.29.542-.796a3.4 3.4 0 0 0 .189-1.178 3.4 3.4 0 0 0-.184-1.164 1.73 1.73 0 0 0-.542-.785q-.358-.283-.88-.283-.516 0-.875.273-.352.273-.541.776-.189.501-.189 1.183m8.904-6.364V261h-2.118v-10.182zm5.176 10.331q-1.177 0-2.028-.477a3.3 3.3 0 0 1-1.303-1.362q-.457-.885-.457-2.093 0-1.179.457-2.069a3.4 3.4 0 0 1 1.288-1.387q.836-.497 1.959-.497.756 0 1.407.244a3.1 3.1 0 0 1 1.143.721q.492.482.766 1.213.273.725.273 1.7v.582h-6.448v-1.313h4.455q0-.458-.199-.81a1.44 1.44 0 0 0-.552-.552 1.57 1.57 0 0 0-.81-.204q-.483 0-.855.224a1.56 1.56 0 0 0-.577.592 1.7 1.7 0 0 0-.214.82v1.248q0 .567.209.979.214.412.601.636.389.224.92.224.354 0 .647-.099a1.3 1.3 0 0 0 .82-.786l1.959.13q-.15.705-.612 1.232-.457.522-1.183.816-.721.288-1.666.288m6.521-7.785 1.402 2.669 1.436-2.669h2.173l-2.212 3.818 2.272 3.818h-2.163l-1.506-2.64-1.482 2.64h-2.187l2.267-3.818-2.188-3.818zm6.269 7.636v-7.636h2.118V261zm1.064-8.621q-.472 0-.811-.313a1.02 1.02 0 0 1-.333-.761q0-.436.333-.75.339-.318.811-.318t.805.318a1 1 0 0 1 .338.75q0 .443-.338.761-.333.313-.805.313m6.812.985v1.591h-4.599v-1.591zm-3.555-1.83h2.118v7.119q0 .293.09.458.089.159.248.224.165.064.378.064.15 0 .299-.025.149-.03.228-.044l.333 1.576a6 6 0 0 1-.447.114 3.6 3.6 0 0 1-.701.084q-.766.03-1.342-.203a1.87 1.87 0 0 1-.89-.726q-.319-.492-.314-1.243zm6.242 12.33q-.402 0-.755-.065a2.8 2.8 0 0 1-.577-.154l.477-1.581q.373.115.671.124a.85.85 0 0 0 .522-.139q.223-.148.363-.507l.125-.323-2.74-7.855h2.227l1.581 5.608h.08l1.596-5.608h2.242l-2.968 8.461a3.6 3.6 0 0 1-.582 1.074 2.4 2.4 0 0 1-.919.711q-.557.254-1.343.254m-298.145-10.118q-.06-.601-.512-.934t-1.228-.333q-.527 0-.89.149-.363.144-.557.403a.97.97 0 0 0-.188.586.83.83 0 0 0 .114.477q.13.204.353.353.223.145.517.254.293.105.626.179l.915.219a6.5 6.5 0 0 1 1.223.397q.557.249.965.612t.631.855q.228.492.234 1.129-.006.935-.478 1.62-.467.681-1.352 1.059-.88.373-2.123.373-1.233 0-2.147-.378-.91-.377-1.422-1.118-.508-.746-.532-1.845h2.083q.035.513.293.855.263.338.701.512.442.17.999.169.548 0 .95-.159a1.45 1.45 0 0 0 .631-.442q.224-.284.224-.651a.85.85 0 0 0-.204-.577q-.199-.234-.586-.398a6 6 0 0 0-.94-.298l-1.109-.278q-1.287-.314-2.033-.98t-.741-1.795q-.004-.925.492-1.615.502-.692 1.377-1.079.876-.388 1.989-.388 1.134 0 1.979.388.85.387 1.322 1.079.473.69.487 1.6zm3.611 7.254v-7.636h2.118V261zm1.064-8.621q-.472 0-.811-.313a1.02 1.02 0 0 1-.333-.761q0-.436.333-.75.339-.318.811-.318t.805.318a1 1 0 0 1 .338.75q0 .443-.338.761-.333.313-.805.313m2.75 8.621v-7.636h2.019v1.347h.089q.239-.67.796-1.059.556-.388 1.332-.388.786 0 1.337.393.552.388.736 1.054h.08a2.03 2.03 0 0 1 .845-1.049q.617-.398 1.457-.398 1.068 0 1.735.681.67.677.671 1.919V261h-2.113v-4.718q0-.636-.338-.955a1.2 1.2 0 0 0-.845-.318q-.577 0-.9.368-.323.363-.323.96V261h-2.054v-4.763q0-.562-.323-.895-.318-.333-.84-.333-.352 0-.636.179-.279.174-.443.492a1.6 1.6 0 0 0-.164.736V261zm12.77 2.864v-10.5h2.088v1.282h.094q.14-.308.403-.626a2.1 2.1 0 0 1 .696-.537q.432-.219 1.074-.219.836 0 1.541.438.706.432 1.129 1.307.422.87.422 2.183 0 1.278-.412 2.157-.408.876-1.114 1.328a2.86 2.86 0 0 1-1.571.447q-.617 0-1.049-.204a2.15 2.15 0 0 1-.701-.512 2.6 2.6 0 0 1-.418-.631h-.064v4.087zm2.073-6.682q0 .681.189 1.188t.547.791q.357.278.87.278.517 0 .875-.283a1.8 1.8 0 0 0 .542-.796 3.4 3.4 0 0 0 .189-1.178q0-.661-.184-1.164a1.74 1.74 0 0 0-.542-.785q-.358-.283-.88-.283-.518 0-.875.273-.353.273-.542.776-.189.502-.189 1.183m8.904-6.364V261h-2.118v-10.182zM324.316 261v-7.636h2.118V261zm1.064-8.621q-.472 0-.811-.313a1.02 1.02 0 0 1-.333-.761q0-.436.333-.75.339-.318.811-.318t.805.318a1 1 0 0 1 .338.75q0 .443-.338.761a1.13 1.13 0 0 1-.805.313m6.2 8.77q-1.173 0-2.018-.497a3.37 3.37 0 0 1-1.293-1.392q-.447-.89-.447-2.048 0-1.174.452-2.059a3.37 3.37 0 0 1 1.298-1.387q.84-.502 1.998-.502 1 0 1.75.363a2.93 2.93 0 0 1 1.189 1.019q.437.657.482 1.542h-1.999q-.084-.573-.447-.92-.358-.353-.94-.353-.492 0-.86.268-.363.264-.567.771t-.203 1.228q0 .73.198 1.243.204.512.572.78.368.269.86.269.363 0 .652-.149.293-.15.482-.433a1.65 1.65 0 0 0 .253-.691h1.999a3.1 3.1 0 0 1-.477 1.541 2.9 2.9 0 0 1-1.169 1.034q-.745.373-1.765.373m4.767-.149v-7.636h2.118V261zm1.064-8.621q-.472 0-.811-.313a1.02 1.02 0 0 1-.333-.761q0-.436.333-.75.339-.318.811-.318t.805.318a1 1 0 0 1 .338.75q0 .443-.338.761-.333.313-.805.313m6.812.985v1.591h-4.599v-1.591zm-3.555-1.83h2.118v7.119q0 .293.09.458.09.158.248.224.165.064.378.064.15 0 .299-.025.149-.03.228-.044l.333 1.576a6 6 0 0 1-.447.114 3.6 3.6 0 0 1-.701.084q-.765.03-1.342-.203a1.87 1.87 0 0 1-.89-.726q-.318-.493-.314-1.243zm6.242 12.33q-.402 0-.755-.065a2.8 2.8 0 0 1-.577-.154l.477-1.581q.374.115.671.124a.85.85 0 0 0 .522-.139q.225-.148.363-.507l.125-.323-2.74-7.855h2.228l1.581 5.608h.079l1.596-5.608h2.242l-2.968 8.461a3.5 3.5 0 0 1-.582 1.074 2.4 2.4 0 0 1-.919.711q-.558.254-1.343.254m49.91 190.883q-.059-.602-.512-.935-.452-.333-1.228-.333-.527 0-.89.149-.363.144-.556.403a.97.97 0 0 0-.189.586.84.84 0 0 0 .114.478q.13.203.353.353.223.144.517.253.293.105.626.179l.915.219a6.4 6.4 0 0 1 1.223.398q.557.248.965.611t.631.855q.229.492.234 1.129-.006.934-.478 1.62-.467.681-1.352 1.059-.88.373-2.123.373-1.233 0-2.147-.378-.91-.377-1.422-1.118-.508-.746-.532-1.845h2.083q.035.513.293.855.264.339.701.513.442.169.999.169.548 0 .95-.16a1.45 1.45 0 0 0 .631-.442q.224-.284.224-.651a.85.85 0 0 0-.204-.577q-.198-.233-.586-.398a6 6 0 0 0-.94-.298l-1.109-.278q-1.287-.314-2.033-.98t-.741-1.795q-.005-.924.492-1.615.502-.692 1.378-1.079.875-.388 1.988-.388 1.133 0 1.979.388.85.387 1.322 1.079.473.69.488 1.601zm7.061 7.402q-1.158 0-2.003-.492a3.37 3.37 0 0 1-1.298-1.382q-.457-.89-.457-2.063 0-1.184.457-2.068a3.33 3.33 0 0 1 1.298-1.383q.845-.497 2.003-.497c1.158 0 1.439.166 1.999.497q.845.493 1.302 1.383.458.884.458 2.068 0 1.173-.458 2.063a3.36 3.36 0 0 1-1.302 1.382q-.84.492-1.999.492m.01-1.64q.527 0 .88-.299.353-.303.532-.825.184-.522.184-1.188t-.184-1.188a1.85 1.85 0 0 0-.532-.826q-.353-.303-.88-.303-.532 0-.895.303a1.9 1.9 0 0 0-.542.826 3.7 3.7 0 0 0-.179 1.188q0 .666.179 1.188.185.522.542.825.363.299.895.299m5.126 4.355v-10.5h2.088v1.282h.094q.14-.308.403-.626.269-.322.696-.537.432-.219 1.074-.219.836 0 1.541.438.706.432 1.129 1.307.422.87.422 2.183 0 1.278-.412 2.157-.408.876-1.114 1.328a2.86 2.86 0 0 1-1.571.447q-.617 0-1.049-.203a2.2 2.2 0 0 1-.701-.513 2.6 2.6 0 0 1-.418-.631h-.064v4.087zm2.073-6.682q0 .681.189 1.188t.547.791q.357.278.87.278.517 0 .875-.283a1.8 1.8 0 0 0 .542-.796 3.4 3.4 0 0 0 .189-1.178q0-.662-.184-1.163a1.74 1.74 0 0 0-.542-.786q-.358-.283-.88-.283-.518 0-.875.273-.353.273-.542.776-.189.501-.189 1.183m8.904-.597V462h-2.118v-10.182h2.058v3.893h.09a2.16 2.16 0 0 1 .835-1.059q.577-.387 1.447-.388.795 0 1.387.348.597.344.925.99.333.64.328 1.536V462h-2.118v-4.484q.005-.706-.358-1.099-.358-.393-1.004-.393-.433 0-.766.184a1.3 1.3 0 0 0-.517.537 1.8 1.8 0 0 0-.189.84m6.619 4.415v-7.636h2.117V462zm1.063-8.621a1.15 1.15 0 0 1-.81-.313 1.02 1.02 0 0 1-.333-.761q0-.437.333-.75.338-.318.81-.318t.806.318a1 1 0 0 1 .338.75q0 .443-.338.761a1.13 1.13 0 0 1-.806.313m9.105 3.162-1.939.12a1 1 0 0 0-.214-.448 1.14 1.14 0 0 0-.433-.323 1.5 1.5 0 0 0-.631-.124q-.492 0-.83.208-.339.204-.338.547 0 .274.219.463.218.189.75.303l1.382.278q1.114.23 1.661.736.547.507.547 1.333 0 .75-.443 1.317-.436.567-1.203.885-.76.313-1.755.313-1.516 0-2.416-.631a2.46 2.46 0 0 1-1.049-1.73l2.083-.11q.094.463.457.706.363.239.93.239.557 0 .895-.214.344-.219.348-.562a.58.58 0 0 0-.244-.472q-.238-.189-.735-.288l-1.323-.264q-1.119-.223-1.665-.775-.543-.552-.542-1.407 0-.736.398-1.268.402-.532 1.128-.82.73-.29 1.71-.289 1.447 0 2.277.612.836.611.975 1.665m5.569-2.177v1.591h-4.599v-1.591zm-3.555-1.83h2.118v7.119q0 .293.09.458.089.158.248.224.165.064.378.064.15 0 .299-.025l.228-.044.333 1.576a6 6 0 0 1-.447.114 3.6 3.6 0 0 1-.701.084q-.766.03-1.342-.203a1.87 1.87 0 0 1-.89-.726q-.318-.493-.314-1.243zM443.73 462v-7.636h2.118V462zm1.064-8.621q-.472 0-.811-.313a1.02 1.02 0 0 1-.333-.761q0-.437.333-.75.339-.318.811-.318t.805.318a1 1 0 0 1 .338.75q0 .443-.338.761-.333.313-.805.313m6.2 8.77q-1.173 0-2.018-.497a3.37 3.37 0 0 1-1.293-1.392q-.447-.89-.447-2.048 0-1.173.452-2.059a3.37 3.37 0 0 1 1.298-1.387q.84-.501 1.999-.502.999 0 1.75.363.75.363 1.188 1.019.437.657.482 1.542h-1.999q-.084-.573-.447-.92-.358-.353-.94-.353-.491 0-.86.268-.363.264-.566.771-.204.507-.204 1.228 0 .73.199 1.243.203.512.571.78.368.269.86.269.363 0 .652-.149.293-.15.482-.433.194-.288.253-.691h1.999a3.1 3.1 0 0 1-.477 1.541 2.9 2.9 0 0 1-1.169 1.034q-.745.373-1.765.373m6.945-.005q-.732 0-1.303-.253a2.1 2.1 0 0 1-.905-.761q-.328-.507-.328-1.263 0-.636.234-1.069.233-.432.636-.696a3.1 3.1 0 0 1 .915-.397q.517-.135 1.084-.189.666-.07 1.074-.13.407-.065.591-.188a.42.42 0 0 0 .184-.368v-.03q0-.473-.298-.731-.294-.258-.835-.259-.573 0-.91.254a1.17 1.17 0 0 0-.448.626l-1.958-.159q.149-.696.586-1.203a2.8 2.8 0 0 1 1.129-.785q.696-.279 1.611-.279.636 0 1.218.149a3.2 3.2 0 0 1 1.039.463q.457.313.721.805.263.487.263 1.168V462h-2.009v-1.059h-.059a2.2 2.2 0 0 1-.492.632 2.3 2.3 0 0 1-.741.422q-.433.15-.999.149m.606-1.461q.468 0 .825-.184.358-.189.562-.507a1.3 1.3 0 0 0 .204-.721v-.811a1.2 1.2 0 0 1-.273.12 5 5 0 0 1-.383.094q-.214.04-.428.075l-.388.054a2.7 2.7 0 0 0-.651.174 1.05 1.05 0 0 0-.432.323.8.8 0 0 0-.155.498q0 .432.314.661.318.224.805.224m9.399-6.319v1.591h-4.599v-1.591zm-3.555-1.83h2.118v7.119q0 .293.09.458.089.158.248.224.164.064.378.064.149 0 .298-.025l.229-.044.333 1.576a6 6 0 0 1-.447.114 3.6 3.6 0 0 1-.701.084q-.766.03-1.343-.203a1.9 1.9 0 0 1-.89-.726q-.318-.493-.313-1.243zm4.935 9.466v-7.636h2.117V462zm1.063-8.621a1.15 1.15 0 0 1-.81-.313 1.02 1.02 0 0 1-.333-.761q0-.437.333-.75.338-.318.81-.318t.806.318a1 1 0 0 1 .338.75q0 .443-.338.761a1.13 1.13 0 0 1-.806.313m6.201 8.77q-1.158 0-2.003-.492a3.37 3.37 0 0 1-1.298-1.382q-.457-.89-.457-2.063 0-1.184.457-2.068a3.33 3.33 0 0 1 1.298-1.383q.845-.497 2.003-.497 1.16 0 1.999.497.844.493 1.302 1.383.458.884.458 2.068 0 1.173-.458 2.063a3.36 3.36 0 0 1-1.302 1.382q-.84.492-1.999.492m.01-1.64q.528 0 .88-.299.353-.303.532-.825.184-.522.184-1.188t-.184-1.188a1.85 1.85 0 0 0-.532-.826q-.352-.303-.88-.303-.531 0-.895.303a1.9 1.9 0 0 0-.542.826 3.7 3.7 0 0 0-.179 1.188q0 .666.179 1.188.185.522.542.825.363.299.895.299m7.244-2.924V462h-2.118v-7.636h2.018v1.347h.09q.253-.666.85-1.054.597-.393 1.447-.393.795 0 1.387.348.591.348.92.995.328.641.328 1.531V462h-2.118v-4.484q.005-.702-.358-1.094-.363-.398-.999-.398-.428 0-.756.184a1.3 1.3 0 0 0-.507.537q-.18.348-.184.84"/>
  <path fill="#1f1f1f" d="M198.702 425h-5.157v-14.545h5.199q2.195 0 3.779.873a5.9 5.9 0 0 1 2.436 2.493q.86 1.627.859 3.892 0 2.272-.859 3.906a5.9 5.9 0 0 1-2.451 2.507q-1.59.874-3.806.874m-2.081-2.635h1.953q1.364 0 2.294-.483.938-.49 1.406-1.513.476-1.03.476-2.656 0-1.612-.476-2.635-.468-1.023-1.399-1.506-.93-.483-2.294-.483h-1.96zM208.039 425v-10.909h3.026V425zm1.52-12.315q-.674 0-1.157-.448a1.45 1.45 0 0 1-.476-1.086q0-.626.476-1.073a1.63 1.63 0 0 1 1.157-.454q.675 0 1.151.454.483.447.483 1.073 0 .631-.483 1.086a1.62 1.62 0 0 1-1.151.448m13.006 4.517-2.77.17a1.4 1.4 0 0 0-.305-.639 1.6 1.6 0 0 0-.618-.462 2.1 2.1 0 0 0-.902-.177q-.703 0-1.186.298-.483.291-.483.781a.84.84 0 0 0 .313.661q.312.27 1.072.433l1.974.398q1.591.327 2.373 1.051.78.724.781 1.903 0 1.073-.632 1.882-.626.81-1.719 1.265-1.086.447-2.507.447-2.166 0-3.452-.902-1.279-.909-1.498-2.472l2.975-.156q.135.661.654 1.009.518.34 1.328.341.795 0 1.278-.306.49-.312.498-.802a.84.84 0 0 0-.348-.675q-.341-.27-1.052-.412l-1.889-.376q-1.597-.32-2.379-1.108-.774-.789-.774-2.01 0-1.052.568-1.811.576-.76 1.612-1.172 1.044-.412 2.443-.412 2.067 0 3.253.873 1.194.874 1.392 2.38m7.083 8.011q-1.676 0-2.883-.71a4.8 4.8 0 0 1-1.847-1.989q-.639-1.271-.639-2.926 0-1.676.646-2.94a4.8 4.8 0 0 1 1.854-1.982q1.2-.717 2.855-.717 1.428 0 2.5.518a4.2 4.2 0 0 1 1.697 1.456q.626.938.689 2.202h-2.855q-.12-.817-.639-1.314-.511-.504-1.342-.504-.704 0-1.229.383-.519.376-.81 1.101t-.291 1.754q0 1.044.284 1.776.29.731.817 1.115.525.384 1.229.384.517 0 .93-.214.419-.213.689-.617.277-.412.362-.988h2.855q-.07 1.251-.682 2.202a4.1 4.1 0 0 1-1.669 1.477q-1.065.533-2.521.533m11.738 0q-1.654 0-2.862-.703a4.8 4.8 0 0 1-1.854-1.975q-.653-1.271-.653-2.947 0-1.69.653-2.955a4.76 4.76 0 0 1 1.854-1.974q1.208-.71 2.862-.71 1.656 0 2.855.71a4.74 4.74 0 0 1 1.861 1.974q.654 1.264.654 2.955 0 1.676-.654 2.947a4.8 4.8 0 0 1-1.861 1.975q-1.2.703-2.855.703m.015-2.344q.751 0 1.257-.426.504-.433.76-1.179.262-.746.262-1.697t-.262-1.698q-.256-.745-.76-1.179-.506-.433-1.257-.433-.76 0-1.279.433-.511.434-.774 1.179-.255.746-.256 1.698 0 .951.256 1.697.263.746.774 1.179.519.426 1.279.426m17.141-8.778L254.728 425h-3.409l-3.814-10.909h3.196l2.266 7.805h.113l2.259-7.805zm6.168 11.122q-1.683 0-2.898-.682a4.67 4.67 0 0 1-1.86-1.946q-.654-1.264-.654-2.99 0-1.683.654-2.954a4.83 4.83 0 0 1 1.839-1.982q1.193-.71 2.798-.71 1.08 0 2.01.348.938.34 1.634 1.03.703.689 1.094 1.733.39 1.037.39 2.429v.831h-9.211v-1.875h6.363q0-.654-.284-1.158a2.03 2.03 0 0 0-.788-.788 2.24 2.24 0 0 0-1.158-.292q-.688 0-1.221.32-.526.312-.824.845-.299.525-.306 1.172v1.783q0 .809.299 1.399.305.59.859.909t1.314.32q.504 0 .923-.143.42-.141.718-.426.297-.284.454-.696l2.798.185a3.8 3.8 0 0 1-.873 1.761q-.654.746-1.691 1.165-1.029.412-2.379.412m6.982-.213v-10.909h2.933v1.903h.114q.297-1.015 1.001-1.534a2.64 2.64 0 0 1 1.619-.525 4.6 4.6 0 0 1 .952.106v2.685a4 4 0 0 0-.589-.114 5 5 0 0 0-.689-.05q-.667 0-1.194.292-.518.284-.823.795a2.3 2.3 0 0 0-.299 1.179V425zm10.383 4.091q-.575 0-1.079-.092a4 4 0 0 1-.824-.221l.682-2.258q.532.163.958.177.434.015.746-.198.32-.214.519-.725l.177-.462-3.913-11.221h3.182l2.258 8.011h.114l2.28-8.011h3.203l-4.24 12.088a5.1 5.1 0 0 1-.831 1.534q-.519.66-1.314 1.016-.796.362-1.918.362m315.297-13.544h-3.111a3 3 0 0 0-.348-1.073 2.7 2.7 0 0 0-.675-.809 3 3 0 0 0-.952-.512 3.7 3.7 0 0 0-1.157-.177q-1.13 0-1.968.561-.837.554-1.299 1.619-.462 1.059-.462 2.571 0 1.555.462 2.614.468 1.058 1.307 1.598.837.54 1.939.54.617 0 1.143-.164a3 3 0 0 0 .945-.476 2.8 2.8 0 0 0 .681-.774q.277-.454.384-1.037l3.111.015a5.6 5.6 0 0 1-.604 1.931 5.8 5.8 0 0 1-1.285 1.655 6.1 6.1 0 0 1-1.918 1.151q-1.108.419-2.507.419-1.947 0-3.48-.881-1.527-.88-2.415-2.55-.88-1.668-.881-4.041 0-2.379.895-4.048t2.429-2.543q1.534-.88 3.452-.88 1.264 0 2.344.355a5.9 5.9 0 0 1 1.924 1.037 5.3 5.3 0 0 1 1.364 1.655q.532.98.682 2.244m5.259 9.659q-1.044 0-1.861-.362a3 3 0 0 1-1.292-1.087q-.47-.724-.469-1.804 0-.909.334-1.527.333-.618.909-.994a4.4 4.4 0 0 1 1.307-.568 10 10 0 0 1 1.548-.27 40 40 0 0 0 1.534-.185q.582-.092.845-.27.263-.177.263-.525v-.043q0-.675-.426-1.044-.42-.369-1.193-.369-.817 0-1.3.362a1.67 1.67 0 0 0-.639.895l-2.799-.228a3.8 3.8 0 0 1 .838-1.718q.625-.732 1.613-1.122.994-.399 2.301-.398.909 0 1.74.213a4.6 4.6 0 0 1 1.484.66q.654.448 1.03 1.151.376.696.376 1.669V425h-2.869v-1.513h-.085q-.263.512-.703.902a3.3 3.3 0 0 1-1.058.604q-.618.213-1.428.213m.866-2.088q.668 0 1.179-.263.512-.27.803-.724a1.87 1.87 0 0 0 .291-1.03v-1.158a1.6 1.6 0 0 1-.39.171 8 8 0 0 1-.547.135 34 34 0 0 1-.611.106l-.554.078a3.7 3.7 0 0 0-.931.249 1.5 1.5 0 0 0-.617.461q-.22.285-.221.711 0 .618.448.944.454.32 1.15.32m7.625 5.973v-15h2.983v1.832h.135a4 4 0 0 1 .575-.895q.384-.46.994-.767.618-.312 1.534-.312 1.194 0 2.202.625 1.009.618 1.612 1.868.604 1.243.604 3.118 0 1.825-.59 3.082-.582 1.25-1.59 1.896a4.1 4.1 0 0 1-2.245.64q-.88 0-1.498-.292a3.1 3.1 0 0 1-1.002-.731 3.7 3.7 0 0 1-.596-.902h-.093v5.838zm2.961-9.546q0 .974.27 1.698t.781 1.129q.512.398 1.243.398.739 0 1.25-.405.511-.412.775-1.136.269-.732.269-1.684 0-.944-.262-1.662-.264-.717-.775-1.122-.51-.405-1.257-.405-.738 0-1.25.391-.504.391-.774 1.108t-.27 1.69m12.806 5.661q-1.045 0-1.861-.362a3 3 0 0 1-1.293-1.087q-.468-.724-.468-1.804 0-.909.333-1.527a2.7 2.7 0 0 1 .909-.994 4.4 4.4 0 0 1 1.307-.568 10 10 0 0 1 1.549-.27 40 40 0 0 0 1.534-.185q.582-.092.845-.27.263-.177.263-.525v-.043q0-.675-.426-1.044-.42-.369-1.194-.369-.816 0-1.299.362a1.67 1.67 0 0 0-.64.895l-2.798-.228a3.8 3.8 0 0 1 .838-1.718q.625-.732 1.612-1.122.994-.399 2.302-.398.909 0 1.74.213a4.6 4.6 0 0 1 1.484.66q.654.448 1.03 1.151.376.696.376 1.669V425h-2.869v-1.513h-.085q-.264.512-.703.902a3.3 3.3 0 0 1-1.059.604q-.617.213-1.427.213m.866-2.088q.668 0 1.179-.263.512-.27.803-.724a1.87 1.87 0 0 0 .291-1.03v-1.158a1.6 1.6 0 0 1-.391.171 7 7 0 0 1-.547.135q-.305.056-.61.106l-.554.078a3.7 3.7 0 0 0-.931.249 1.5 1.5 0 0 0-.618.461q-.22.285-.22.711 0 .618.448.944.454.32 1.15.32m7.681 1.882v-14.545h3.026v5.468h.092q.2-.44.576-.895.383-.46.994-.767.618-.312 1.534-.312 1.192 0 2.202.625 1.008.618 1.612 1.868.604 1.243.604 3.118 0 1.825-.59 3.082-.582 1.25-1.591 1.896a4.1 4.1 0 0 1-2.244.64q-.88 0-1.499-.292a3.1 3.1 0 0 1-1.001-.731 3.7 3.7 0 0 1-.597-.902h-.135V425zm2.962-5.455q0 .974.27 1.698t.781 1.129q.511.398 1.243.398.738 0 1.25-.405.511-.412.774-1.136.27-.732.27-1.684 0-.944-.263-1.662-.262-.717-.774-1.122t-1.257-.405q-.738 0-1.25.391-.504.391-.774 1.108t-.27 1.69m9.696 5.455v-10.909h3.026V425zm1.52-12.315q-.674 0-1.157-.448a1.45 1.45 0 0 1-.476-1.086q0-.626.476-1.073a1.63 1.63 0 0 1 1.157-.454q.675 0 1.151.454.483.447.483 1.073 0 .631-.483 1.086a1.62 1.62 0 0 1-1.151.448m6.955-2.23V425h-3.025v-14.545zM658.993 425v-10.909h3.025V425zm1.52-12.315q-.675 0-1.158-.448a1.45 1.45 0 0 1-.476-1.086q0-.626.476-1.073a1.63 1.63 0 0 1 1.158-.454q.675 0 1.15.454.483.447.483 1.073 0 .631-.483 1.086-.475.447-1.15.448m9.732 1.406v2.273h-6.57v-2.273zm-5.079-2.614h3.026v10.171q0 .419.128.653a.7.7 0 0 0 .355.32q.234.092.54.092.213 0 .426-.035.213-.043.327-.064l.475 2.251a8 8 0 0 1-.639.163 5 5 0 0 1-1.001.121q-1.094.043-1.918-.291a2.7 2.7 0 0 1-1.271-1.037q-.454-.703-.448-1.776zm8.917 17.614q-.575 0-1.079-.092a4 4 0 0 1-.824-.221l.682-2.258q.532.163.959.177.433.015.745-.198.32-.214.519-.725l.177-.462-3.913-11.221h3.182l2.258 8.011h.114l2.28-8.011h3.203l-4.24 12.088a5.1 5.1 0 0 1-.831 1.534q-.519.66-1.314 1.016-.795.362-1.918.362"/>
</svg>
