<svg xmlns="http://www.w3.org/2000/svg" id="tabs" viewBox="0 0 806.9 274">
  <defs>
    <clipPath id="clippath">
      <path d="M141 46.9c-50 0-90 40.3-90 90s40.3 90 90 90 90-40.3 90-90-40.3-90-90-90m0 130c-22.1 0-40-17.9-40-40s17.9-40 40-40 40 17.9 40 40-17.9 40-40 40" class="st0"/>
    </clipPath>
    <clipPath id="clippath-1">
      <path d="m230.9 18.6-.3 168.9H50.8l.3-168.9z" class="st0"/>
    </clipPath>
    <style>
      .st0{fill:none}.st3{fill:#ff8c00}.st7{fill:#fff}
    </style>
  </defs>
  <path d="M0 50.4C0 22.8 22.4.4 50 .4h706.9c27.6 0 50 22.4 50 50v174c0 27.6-22.4 50-50 50H0z" class="st7"/>
  <g style="clip-path:url(#clippath)">
    <path d="M200.7 63.1h30v240h-30z" style="fill:#e40303"/>
    <path d="M170.7 63.1h30v240h-30z" class="st3"/>
    <path d="M141 62.9h30v240h-30z" style="fill:#ffed00"/>
    <path d="M111 62.9h30v240h-30z" style="fill:#008026"/>
    <path d="M81.1 62.9h30v240h-30z" style="fill:#004cff"/>
    <path d="m81.092 14.392 59.68-59.68 59.68 59.68-59.68 59.68z" class="st7"/>
    <path d="M51.1 62.9h30v240h-30z" style="fill:#732982"/>
    <g style="clip-path:url(#clippath-1)">
      <path d="m-15.3-.5 156-156 156 156-156 156zm156-132.8L8-.5l132.7 132.7L273.4-.5 140.7-133.2Z"/>
      <path d="m13.1 4.8 127.6-127.6L268.3 4.8 140.7 132.4zM140.7-99.5 36.4 4.8l104.3 104.3L245 4.8z" style="fill:#613915"/>
      <path d="m41.2 10 99.5-99.5L240.2 10l-99.5 99.5zm99.5-76.2L64.5 10l76.2 76.2L216.9 10z" style="fill:#73d7ee"/>
      <path d="m69.4 14.9 71.3-71.3L212 14.9l-71.3 71.3zm71.3-48-48 48 48 48 48-48z" style="fill:#ffafc8"/>
    </g>
  </g>
  <path d="M168.6 131.2v-.2l-7.9-20.3c-.2-.4-.4-.7-.8-1s-.8-.3-1.2-.3-.8.2-1.2.4c-.3.3-.6.6-.7 1.1l-5.2 16.1h-21.2l-5.2-16.1c-.1-.4-.4-.8-.7-1.1s-.7-.4-1.2-.4c-.4 0-.8 0-1.2.3-.4.2-.6.6-.8 1l-7.8 20.3v.2c-1.2 2.9-1.3 6.1-.5 9.1.9 3 2.7 5.7 5.2 7.5l11.8 8.9 5.9 4.4 3.6 2.7c.4.3.9.5 1.4.5s1-.2 1.4-.5l3.6-2.7 5.9-4.4 11.9-8.9c2.5-1.9 4.3-4.6 5.2-7.6s.7-6.2-.4-9.1Z" class="st3"/>
  <path d="M292 65.9h57.2c32.7 0 53.1 18.4 53.1 47.6s-20.8 47.6-53.5 47.6h-40.5v-24.9h39c16 0 26-8.8 26-22.8s-10-22.7-26-22.7h-25.8v120.6h-29.6V65.9Zm124.4 42.4h27.3v17.5h.3c3.8-12.3 11.6-18.3 25.1-18.3s6.2.2 8.5.3V132c-2.1-.2-7.5-.6-12.3-.6-11.8 0-20.6 8.2-20.6 23.8v56.2h-28.3zm73.4-29.4c0-8.5 7-15.3 15.9-15.3s15.8 6.8 15.8 15.3-7 15.3-15.9 15.3-15.9-6.8-15.9-15.3Zm1.8 29.4h28.3v103.1h-28.3zm44.3 51.5c0-31.7 18.1-53.6 44.4-53.6s23.9 5.3 30.5 16.5h.1V66h28.3v145.5h-27.9v-15.8h-.1c-6 12-17.1 18-30.6 18-27 0-44.6-21.5-44.6-53.8Zm76.3 0c0-18.6-9.8-30.6-24.5-30.6s-23.3 11.1-23.3 30.6 9.2 30.7 23.3 30.7 24.5-12.1 24.5-30.7m42.9.1c0-31.4 20.9-54 50.5-54s50.6 22 50.6 53.4v7.6h-90.9v-18.2h77.2l-12.8 4.4c0-15.7-9.1-25.6-23.6-25.6s-23.5 9.9-23.5 25.6v12.4c0 16.2 9 26.9 24.7 26.9s19.2-5.3 21.8-13.3h26c-3.9 20.4-23.7 34.7-48.6 34.7S655 191.3 655 160Z" style="fill:#171321"/>
</svg>
