<svg xmlns="http://www.w3.org/2000/svg" viewBox="0 0 96 96">
  <g fill="none" stroke="#171321" stroke-miterlimit="10" stroke-width="2">
    <path d="M42.71 73.57c-16.78 6.02-31.37 5.6-35.85-2.07S9.3 51.12 22.95 39.76m8.69-6.42c1.84-1.21 3.76-2.39 5.74-3.52 22.72-12.98 45.89-15.36 51.76-5.31S81.33 53.22 58.61 66.2a99 99 0 0 1-5.91 3.13"/>
    <path d="M42.97 69.16c-1.86-.92-3.72-1.91-5.58-2.98C14.66 53.21 1 34.54 6.86 24.5c2.62-4.49 8.7-6.5 16.65-6.19m49.54 21.45C86.7 51.12 93.62 63.82 89.14 71.5c-4.53 7.77-19.42 8.11-36.44 1.86M37.39 20.71c6.74 1.93 14.01 4.98 21.23 9.1 2.01 1.15 3.95 2.34 5.81 3.57"/>
    <path d="M69.04 41.72a104 104 0 0 1 .13 9.82M28.25 30.71C31.37 13.31 39.03 1 48 1s16.78 12.55 19.83 30.22M67.21 68C63.82 83.96 56.49 95 48 95c-11.72 0-21.23-21.04-21.23-47 0-2.13.06-4.23.19-6.28"/>
  </g>
  <circle cx="27.07" cy="36.22" r="5" fill="none" stroke="#171321" stroke-miterlimit="10" stroke-width="2"/>
  <circle cx="47.71" cy="71.66" r="5" fill="none" stroke="#171321" stroke-miterlimit="10" stroke-width="2"/>
  <circle cx="47.71" cy="49.38" r="5" fill="none" stroke="#171321" stroke-miterlimit="10" stroke-width="2"/>
  <circle cx="68.93" cy="36.22" r="5" fill="none" stroke="#171321" stroke-miterlimit="10" stroke-width="2"/>
</svg>
