<svg xmlns="http://www.w3.org/2000/svg" data-name="Layer 1" viewBox="0 0 46 46">
  <path d="M33 16.92H22.33a3.47 3.47 0 0 0-6.67 0H13a1 1 0 0 0 0 2h2.64a3.47 3.47 0 0 0 6.67 0H33a1 1 0 0 0 0-2m-14 2.5a1.5 1.5 0 1 1 1.5-1.5 1.5 1.5 0 0 1-1.5 1.5m14 7.66h-2.66a3.47 3.47 0 0 0-6.67 0H13a1 1 0 1 0 0 2h10.67a3.47 3.47 0 0 0 6.67 0H33a1 1 0 0 0 0-2m-6 2.5a1.5 1.5 0 1 1 1.5-1.5 1.51 1.51 0 0 1-1.5 1.5"/>
  <path d="M1 24a1 1 0 0 0 1-1 22 22 0 0 1 .17-2.67l4.43-1.62a1 1 0 0 0 .62-.64 16.3 16.3 0 0 1 1.14-2.73 1 1 0 0 0 0-.89l-2-4.28a21.3 21.3 0 0 1 3.79-3.79l4.28 2a1 1 0 0 0 .89 0 16.7 16.7 0 0 1 2.73-1.14 1 1 0 0 0 .64-.62l1.62-4.43a20.8 20.8 0 0 1 5.34 0l1.64 4.41a1 1 0 0 0 .64.62 16.7 16.7 0 0 1 2.73 1.14 1 1 0 0 0 .89 0l4.28-2a21.3 21.3 0 0 1 3.79 3.79l-2 4.28a1 1 0 0 0 0 .89 16.3 16.3 0 0 1 1.14 2.73 1 1 0 0 0 .62.64l5 1.82a1 1 0 1 0 .69-1.88L40.54 17a19 19 0 0 0-.9-2.15l2-4.38a1 1 0 0 0-.1-1 22.7 22.7 0 0 0-5-5 1 1 0 0 0-1-.1l-4.38 2A20 20 0 0 0 29 5.46L27.35.92a1 1 0 0 0-.79-.64 23 23 0 0 0-7.12 0 1 1 0 0 0-.79.64L17 5.46a20 20 0 0 0-2.15.9l-4.38-2a1 1 0 0 0-1 .1 22.7 22.7 0 0 0-5 5 1 1 0 0 0-.1 1l2 4.38A19 19 0 0 0 5.46 17L.92 18.65a1 1 0 0 0-.64.79A22 22 0 0 0 0 23a1 1 0 0 0 1 1m44-2a1 1 0 0 0-1 1 22 22 0 0 1-.17 2.67l-4.43 1.62a1 1 0 0 0-.62.64 16.3 16.3 0 0 1-1.14 2.73 1 1 0 0 0 0 .89l2 4.28a21.3 21.3 0 0 1-3.79 3.79l-4.28-2a1 1 0 0 0-.89 0 16.7 16.7 0 0 1-2.73 1.14 1 1 0 0 0-.64.62l-1.62 4.43a20.8 20.8 0 0 1-5.34 0l-1.64-4.41a1 1 0 0 0-.64-.62 16.7 16.7 0 0 1-2.73-1.14 1 1 0 0 0-.89 0l-4.28 2a21.3 21.3 0 0 1-3.79-3.79l2-4.28a1 1 0 0 0 0-.89 16.3 16.3 0 0 1-1.14-2.73 1 1 0 0 0-.62-.65l-5-1.81a1 1 0 1 0-.69 1.88L5.46 29a19 19 0 0 0 .9 2.15l-2 4.38a1 1 0 0 0 .1 1 22.7 22.7 0 0 0 5 5 1 1 0 0 0 1 .1l4.38-2a20 20 0 0 0 2.15.9l1.65 4.54a1 1 0 0 0 .79.64 22.8 22.8 0 0 0 7.12 0 1 1 0 0 0 .79-.64L29 40.54a20 20 0 0 0 2.15-.9l4.38 2a1 1 0 0 0 1-.1 22.7 22.7 0 0 0 5-5 1 1 0 0 0 .1-1l-2-4.38a20 20 0 0 0 .9-2.15l4.54-1.65a1 1 0 0 0 .64-.79A22 22 0 0 0 46 23a1 1 0 0 0-1-1"/>
</svg>
