<svg xmlns="http://www.w3.org/2000/svg" data-name="Layer 1" viewBox="0 0 46 46">
  <path d="M44.76 5.4 40.6 1.24a4.26 4.26 0 0 0-6 0l-3.83 3.83L15 20.88a1 1 0 0 0 0 1.41 1 1 0 0 0 .7.3 1 1 0 0 0 .71-.3l15.1-15.1 8 8a1 1 0 0 0 .71.29 1 1 0 0 0 .71-.29l3.83-3.84a4.24 4.24 0 0 0 0-5.95M43.34 10l-3.12 3.13-7.33-7.35L36 2.65a2.25 2.25 0 0 1 3.17 0l4.15 4.16a2.23 2.23 0 0 1 .02 3.19M13 23.84l-.18-.08h-.08a.3.3 0 0 0-.1 0 .7.7 0 0 0-.21 0 .6.6 0 0 0-.18 0l-.17.07-.17.11s-.06 0-.09.06 0 .05 0 .07a.6.6 0 0 0-.11.17.7.7 0 0 0-.08.18s0 0 0 .08L9.33 35a1 1 0 0 0 1 1.21h.15l11-1.72h.1l.19-.07a1 1 0 0 0 .17-.12l.09-.06 14.91-15.03a1 1 0 0 0-1.41-1.41L21.29 32l-8-8h-.1Zm.12 2.87 6.05 6L11.59 34Z"/>
  <path d="M40.06 21.38a1 1 0 0 0-1 1v19h-32a3.6 3.6 0 0 0-.9-1.55A3.4 3.4 0 0 0 4.6 39V7H24a1 1 0 0 0 0-2H3.6a1 1 0 0 0-1 1v33a3.4 3.4 0 0 0-1.54.87 3.6 3.6 0 1 0 6 3.55h33a1 1 0 0 0 1-1v-20a1 1 0 0 0-1-1.04M4.74 43.53a1.61 1.61 0 1 1 0-2.27 1.63 1.63 0 0 1 .47 1.14 1.6 1.6 0 0 1-.47 1.13"/>
</svg>
