<svg xmlns="http://www.w3.org/2000/svg" viewBox="0 0 46 46">
  <path d="M46 23c0-1.982-1.464-3.616-3.364-3.912a20.1 20.1 0 0 0-2.987-7.202 3.946 3.946 0 0 0-.385-5.15c-1.402-1.403-3.595-1.522-5.148-.384a20 20 0 0 0-7.204-2.988C26.615 1.464 24.982 0 23 0s-3.615 1.464-3.911 3.364a20.1 20.1 0 0 0-7.204 2.988c-1.553-1.138-3.746-1.019-5.148.384a3.95 3.95 0 0 0-.385 5.15 20 20 0 0 0-2.987 7.202C1.464 19.384 0 21.018 0 23s1.464 3.616 3.364 3.912c.51 2.561 1.53 5.02 2.987 7.202a3.946 3.946 0 0 0 .385 5.15 3.945 3.945 0 0 0 5.151.386 20 20 0 0 0 7.202 2.987C19.384 44.537 21.018 46 23 46s3.615-1.463 3.911-3.364c2.561-.51 5.02-1.53 7.202-2.988a3.95 3.95 0 0 0 5.151-.385 3.95 3.95 0 0 0 .385-5.151 20 20 0 0 0 2.987-7.202C44.536 26.616 46 24.982 46 23m-2 0a1.975 1.975 0 0 1-1.973 1.973c-.02 0-.039-.005-.059-.006l-.016-.006c-.01-.001-.018.003-.028.001a1.97 1.97 0 0 1-1.871-1.963 1.97 1.97 0 0 1 1.743-1.95q.078 0 .156-.012l.016-.006c.02-.001.039-.006.059-.006A1.98 1.98 0 0 1 44 23M33.644 33.645c-1.201 1.202-1.458 2.983-.796 4.447a18 18 0 0 1-6.14 2.548c-.565-1.506-2.01-2.586-3.709-2.586s-3.144 1.08-3.709 2.586a18.1 18.1 0 0 1-6.136-2.545 3.95 3.95 0 0 0 .365-1.64 3.94 3.94 0 0 0-1.164-2.809c-1.201-1.202-2.984-1.46-4.448-.797a18.1 18.1 0 0 1-2.547-6.138c1.506-.565 2.586-2.01 2.586-3.71s-1.08-3.144-2.586-3.71a18.1 18.1 0 0 1 2.547-6.139c.52.236 1.077.365 1.638.365a3.96 3.96 0 0 0 2.81-1.162 3.94 3.94 0 0 0 .8-4.45 18 18 0 0 1 6.136-2.545c.565 1.506 2.01 2.586 3.709 2.586s3.144-1.08 3.709-2.586a18 18 0 0 1 6.14 2.548c-.662 1.464-.405 3.245.796 4.447a3.96 3.96 0 0 0 2.81 1.162c.561 0 1.118-.13 1.638-.365a18 18 0 0 1 2.547 6.139c-1.506.565-2.586 2.01-2.586 3.709s1.08 3.144 2.586 3.709a18.1 18.1 0 0 1-2.547 6.139 3.97 3.97 0 0 0-4.449.797M37.85 8.151c.373.373.578.868.578 1.395s-.205 1.022-.578 1.395l-.05.041-.015.007c-.008.006-.011.015-.019.021a1.97 1.97 0 0 1-2.708-.068 1.97 1.97 0 0 1-.064-2.712c.005-.006.012-.008.017-.014l.007-.015c.015-.016.025-.034.04-.049.385-.385.89-.577 1.396-.577a1.97 1.97 0 0 1 1.396.576M23 2c1.088 0 1.973.885 1.973 1.973 0 .022-.006.042-.006.063l-.004.012.001.022A1.97 1.97 0 0 1 23 5.946a1.97 1.97 0 0 1-1.963-1.876l.001-.022-.004-.012c-.001-.021-.006-.041-.006-.063A1.974 1.974 0 0 1 23 2M8.15 8.151c.385-.385.891-.577 1.396-.577s1.01.192 1.396.577c.015.015.025.033.04.048l.007.016c.005.007.014.009.019.016a1.96 1.96 0 0 1-.066 2.71 1.97 1.97 0 0 1-2.708.068c-.008-.006-.011-.015-.019-.021l-.015-.007c-.016-.015-.034-.025-.05-.041-.373-.373-.578-.868-.578-1.395s.205-1.022.578-1.394M2 23c0-1.088.885-1.973 1.973-1.973.02 0 .039.005.059.006l.016.006q.078.01.154.011h.001A1.97 1.97 0 0 1 5.946 23a1.97 1.97 0 0 1-1.872 1.963c-.01.001-.018-.003-.028-.001l-.016.006c-.02.001-.039.006-.059.006A1.976 1.976 0 0 1 2 23m6.15 14.849c-.373-.373-.578-.868-.578-1.395s.205-1.022.578-1.395c.015-.015.032-.025.047-.039l.017-.009c.008-.006.011-.015.019-.021a1.965 1.965 0 0 1 2.778 2.773c-.007.009-.017.012-.023.021l-.007.016-.04.048c-.746.747-2.045.747-2.791.001M23 44a1.975 1.975 0 0 1-1.973-1.973c0-.021.005-.04.006-.061l.005-.013c.001-.008-.002-.015-.001-.022.052-1.042.908-1.877 1.963-1.877s1.911.835 1.963 1.877l-.001.022.005.013c.001.021.006.04.006.061A1.975 1.975 0 0 1 23 44m14.85-6.151c-.746.746-2.045.746-2.791 0-.015-.015-.025-.033-.04-.049l-.007-.015c-.006-.008-.015-.011-.021-.019a1.97 1.97 0 0 1 .068-2.707 1.965 1.965 0 0 1 2.708-.068c.008.006.011.015.019.021l.017.009c.015.014.033.024.047.039.373.373.578.868.578 1.395s-.205 1.022-.578 1.394"/>
  <path d="m28.21 17.86-7.605 8.197-2.885-2.6a1 1 0 1 0-1.338 1.485l3.617 3.259c.063.057.137.09.21.128.036.019.066.049.104.063a1 1 0 0 0 .752-.016c.044-.019.077-.058.118-.083.076-.047.156-.086.219-.154l8.275-8.919a1 1 0 1 0-1.467-1.36"/>
</svg>
