<svg xmlns="http://www.w3.org/2000/svg" viewBox="0 0 46 46">
  <path d="M8.247 28.24a1.03 1.03 0 0 0-1.414 0l-6.54 6.541A1 1 0 0 0 1 36.488h1.973v8.513a1 1 0 0 0 1 1h7.136a1 1 0 0 0 1-1v-.953c1.372-.429 2.378-1.698 2.378-3.21a3.383 3.383 0 0 0-3.378-3.379 3.383 3.383 0 0 0-3.379 3.379c0 1.456.932 2.688 2.226 3.162H4.973v-8.514a1 1 0 0 0-1-1h-.559l4.126-4.125 4.127 4.126h-.559a1 1 0 1 0 0 2h2.973a1 1 0 0 0 .707-1.707zm2.861 11.22a1.38 1.38 0 0 1 0 2.757 1.38 1.38 0 0 1 0-2.757m12.599-23.113a.997.997 0 0 0-1.414 0l-6.541 6.541a1 1 0 0 0 .707 1.707h1.974V45a1 1 0 0 0 1 1h7.135a1 1 0 0 0 1-1V24.594h1.973a1 1 0 0 0 .707-1.707zm2.86 6.247a1 1 0 0 0-1 1V44h-5.135V23.594a1 1 0 0 0-1-1h-.56L23 18.468l4.126 4.126zm19.14-15.761L39.167.292a1 1 0 0 0-1.414.001l-6.541 6.541a1 1 0 0 0 .707 1.707h1.973V45a1 1 0 0 0 1 1h7.136a1 1 0 0 0 1-1V21.453c1.372-.429 2.378-1.698 2.378-3.21a3.38 3.38 0 0 0-3.378-3.378 3.383 3.383 0 0 0-3.379 3.378c0 1.512 1.01 2.781 2.379 3.21V44h-5.136V7.54a1 1 0 0 0-1-1h-.559l4.127-4.126 4.126 4.126h-.559a1 1 0 0 0-1 1v4.093a1 1 0 1 0 2 0V8.54H45a1 1 0 0 0 .707-1.707m-3.68 10.03c.76 0 1.378.618 1.378 1.378a1.38 1.38 0 0 1-2.757 0c0-.76.619-1.378 1.379-1.378"/>
</svg>
