<svg xmlns="http://www.w3.org/2000/svg" data-name="Layer 1" viewBox="0 0 46 46">
  <path d="M45 44H34V17h7v23a1 1 0 0 0 2 0V16a1 1 0 0 0-1-1h-9a1 1 0 0 0-1 1v28H19.5V25h7v15a1 1 0 1 0 2 0V24a1 1 0 0 0-1-1h-9a1 1 0 0 0-1 1v20H5V21h7v19a1 1 0 0 0 2 0V20a1 1 0 0 0-1-1H4a1 1 0 0 0-1 1v24H1a1 1 0 0 0 0 2h44a1 1 0 0 0 0-2"/>
  <path d="M1 10.49h4.16a3.48 3.48 0 0 0 6.3.84l8.05 2.23a3.5 3.5 0 0 0 7-.07 3.6 3.6 0 0 0-.08-.74L35.08 8a3.48 3.48 0 0 0 5.76-1.52H45a1 1 0 0 0 0-2h-4.16a3.49 3.49 0 0 0-6.84 1 3.3 3.3 0 0 0 .1.78L25.46 11A3.46 3.46 0 0 0 23 10a3.5 3.5 0 0 0-3 1.64L12 9.4a3.49 3.49 0 0 0-6.83-.91H1a1 1 0 0 0 0 2M37.5 4A1.5 1.5 0 1 1 36 5.49 1.5 1.5 0 0 1 37.5 4M23 12a1.5 1.5 0 0 1 1.3.76 1.5 1.5 0 1 1-2.82.7A1.5 1.5 0 0 1 23 12M8.5 8A1.5 1.5 0 1 1 7 9.49 1.5 1.5 0 0 1 8.5 8"/>
</svg>
