<svg xmlns="http://www.w3.org/2000/svg" data-name="Layer 1" viewBox="0 0 46 46">
  <path d="M46 25.7a3.5 3.5 0 1 0-4.5 3.3v15h-37V31.82a1 1 0 0 0-2 0V45a1 1 0 0 0 1 1h39a1 1 0 0 0 1-1V29a3.5 3.5 0 0 0 2.5-3.3m-3.5 1.5a1.5 1.5 0 1 1 1.5-1.5 1.5 1.5 0 0 1-1.5 1.5M7 24.32A3.5 3.5 0 0 0 4.5 21V6h37v12.19a1 1 0 0 0 2 0V5a1 1 0 0 0-1-1h-39a1 1 0 0 0-1 1v16A3.49 3.49 0 1 0 7 24.32m-5 0a1.5 1.5 0 1 1 1.5 1.5 1.5 1.5 0 0 1-1.5-1.5"/>
  <path d="M28.47 29.82a1 1 0 0 0 1.42 0l4.1-4.1a1 1 0 0 0 0-1.42l-4.1-4.1a1 1 0 0 0-1.42 0 1 1 0 0 0 0 1.41l3.4 3.4-3.4 3.4a1 1 0 0 0 0 1.41M17.53 20.2a1 1 0 0 0-1.42 0L12 24.3a1 1 0 0 0 0 1.42l4.1 4.1a1 1 0 0 0 .71.29 1 1 0 0 0 .71-1.7L14.13 25l3.4-3.4a1 1 0 0 0 0-1.4m6.84-2.2-4.64 13.39a1 1 0 0 0 .62 1.28 1.3 1.3 0 0 0 .33 0 1 1 0 0 0 .94-.67l4.65-13.42a1 1 0 0 0-1.9-.66Z"/>
</svg>
