<svg xmlns="http://www.w3.org/2000/svg" data-name="Layer 1" viewBox="0 0 46 46">
  <path d="M45 35.19H34.28a3.48 3.48 0 0 0-6.68 0H16.5a2.87 2.87 0 0 1 0-5.74h12.57a4.87 4.87 0 1 0 0-9.73L18 19.67a3.47 3.47 0 0 0-6.67 0H5.22v-7.59a2 2 0 0 1 2-2h3.28v2.5a1 1 0 0 0 1 1h3.82a1 1 0 0 0 1-1v-2.5H31v2.5a1 1 0 0 0 1 1h3.82a1 1 0 0 0 1-1v-2.5h2.49a2 2 0 0 1 2 2v19.11a1 1 0 1 0 2 0V12.08a4 4 0 0 0-4-4h-2.48v-2.5a1 1 0 0 0-1-1H32a1 1 0 0 0-1 1v2.5H16.32v-2.5a1 1 0 0 0-1-1H11.5a1 1 0 0 0-1 1v2.5H7.22a4 4 0 0 0-4 4v7.58H1a1 1 0 0 0 0 2h10.3a3.48 3.48 0 0 0 6.67 0h11.1a2.87 2.87 0 1 1 0 5.73H16.5a4.87 4.87 0 0 0 0 9.74h11.1a3.48 3.48 0 0 0 6.68 0h7V42a2 2 0 0 1-2 2H7.22a2 2 0 0 1-2-2V25.72a1 1 0 0 0-2 0V42a4 4 0 0 0 4 4h32.1a4 4 0 0 0 4-4v-4.81H45a1 1 0 0 0 0-2M33 6.58h1.82v4.99H33Zm-20.51 0h1.82v5H12.5Zm2.13 15.58a1.5 1.5 0 1 1 1.5-1.5 1.5 1.5 0 0 1-1.49 1.5Zm16.32 15.53a1.5 1.5 0 1 1 1.5-1.5 1.5 1.5 0 0 1-1.5 1.5"/>
</svg>
