<svg xmlns="http://www.w3.org/2000/svg" data-name="Layer 1" viewBox="0 0 46 46">
  <path d="M21 27.52a1 1 0 0 0 .7-.29l7.05-7a1 1 0 0 0-1.41-1.41L21 25.11l-2.3-2.25a1 1 0 0 0-1.41 0 1 1 0 0 0 0 1.41l3 3a1 1 0 0 0 .71.25"/>
  <path d="M39.9 29.58a1 1 0 0 0-1.3.55A24.84 24.84 0 0 1 23 44c-8.6-2.78-15.16-9.67-16.74-17.67a1 1 0 0 0 0-.1 3.52 3.52 0 1 0-1.92.21.9.9 0 0 0 0 .28C6 35.52 13.26 43.07 22.71 46a1.07 1.07 0 0 0 .58 0c7.88-2.41 14.29-8 17.16-15.08a1 1 0 0 0-.55-1.34M3.37 23a1.5 1.5 0 1 1 1.5 1.5 1.5 1.5 0 0 1-1.5-1.5m38.76-3.34v-13a1 1 0 0 0-1.34-.93 14.54 14.54 0 0 1-17-5.26 1 1 0 0 0-1.62 0 14.54 14.54 0 0 1-17 5.26 1 1 0 0 0-1.34.93v8.64a1 1 0 0 0 2 0V8A16.46 16.46 0 0 0 23 2.63 16.46 16.46 0 0 0 40.13 8v11.66a3.5 3.5 0 1 0 2 0m-1 4.84a1.5 1.5 0 1 1 1.5-1.5 1.5 1.5 0 0 1-1.5 1.5"/>
</svg>
